<svg viewBox="0 0 162 47" fill="none" xmlns="http://www.w3.org/2000/svg">
<g clip-path="url(#clip0_2285_3628)">
<g clip-path="url(#clip1_2285_3628)">
<mask id="mask0_2285_3628" style="mask-type:luminance" maskUnits="userSpaceOnUse" x="-1" y="0" width="163" height="47">
<g clip-path="url(#clip2_2285_3628)">
<g clip-path="url(#clip3_2285_3628)">
<path d="M-0.015625 43.6168V0.0292969H161.352V43.6168H149.807V42.1631H159.898V1.48302H1.4381V42.1631H91.3498V43.6168H-0.015625Z" fill="black"/>
<path d="M95.7109 39.427H96.3472C96.3472 39.6597 96.3472 39.9075 96.3472 40.1717C96.3472 40.4354 96.3472 40.6884 96.3472 40.9306C96.3472 41.1719 96.3472 41.3789 96.3472 41.5514C96.3472 41.7239 96.3472 41.8371 96.3472 41.89C96.4957 41.6947 96.6695 41.532 96.8691 41.4017C97.0696 41.2713 97.3036 41.2064 97.5708 41.2064C97.7842 41.2064 97.9739 41.2739 98.1395 41.4094C98.3043 41.5449 98.4334 41.7321 98.5263 41.9717C98.6201 42.2114 98.667 42.4858 98.667 42.796C98.667 43.1578 98.6033 43.4732 98.4755 43.7421C98.3491 44.011 98.1705 44.2196 97.9404 44.3681C97.7102 44.5165 97.4387 44.5905 97.1255 44.5909C96.8687 44.5909 96.6269 44.5586 96.4006 44.4945C96.1743 44.4296 95.96 44.3659 95.7591 44.3044C95.7591 44.2175 95.7591 44.0897 95.7591 43.9206C95.7591 43.7515 95.7591 43.5567 95.7591 43.336C95.7591 43.1157 95.7591 42.8864 95.7591 42.6489C95.7591 42.4118 95.7591 42.1808 95.7591 41.9549C95.7591 41.7295 95.7591 41.526 95.7591 41.3445C95.7591 41.1629 95.7591 41.0218 95.7591 40.9203C95.7591 40.7675 95.7587 40.5985 95.7574 40.4126C95.7565 40.2259 95.7527 40.0448 95.7458 39.8684C95.7398 39.6924 95.7281 39.5453 95.7109 39.427ZM96.3472 42.6528V43.9232C96.5034 43.989 96.6385 44.0346 96.7521 44.0596C96.8657 44.0858 96.9904 44.0987 97.1255 44.0987C97.4077 44.0987 97.6392 43.9895 97.8208 43.7709C98.0032 43.5532 98.0939 43.265 98.0939 42.9066C98.0939 42.5525 98.0324 42.2737 97.9094 42.0694C97.7855 41.8646 97.6087 41.7622 97.3793 41.7622C97.1823 41.7622 96.9878 41.8444 96.7964 42.0083C96.6045 42.1731 96.4548 42.3877 96.3472 42.6528ZM99.6991 41.2705L100.907 44.3216L100.637 45.0362L99.5726 42.3976C99.5128 42.2535 99.4435 42.0918 99.3657 41.9119C99.2874 41.7312 99.1867 41.5174 99.0637 41.2705H99.6991ZM101.813 42.3976L101.05 44.5113C100.903 44.9157 100.76 45.2259 100.619 45.4423C100.479 45.6583 100.332 45.8063 100.181 45.8859C100.03 45.965 99.8639 46.0042 99.6836 46.0046C99.5395 46.0046 99.4027 45.9814 99.2736 45.9341C99.1441 45.8863 99.0215 45.8201 98.9049 45.7349L99.0951 45.2259C99.1635 45.2814 99.253 45.3352 99.3631 45.3873C99.4732 45.4384 99.5799 45.4643 99.6836 45.4643C99.7791 45.4643 99.872 45.4372 99.962 45.3834C100.052 45.3296 100.146 45.2216 100.242 45.0594C100.338 44.8972 100.444 44.6563 100.558 44.3371C100.575 44.2885 100.597 44.2248 100.626 44.1456C100.655 44.0673 100.686 43.9778 100.722 43.8763C100.801 43.6535 100.893 43.3915 100.999 43.0912C101.105 42.79 101.214 42.4802 101.326 42.1619C101.439 41.8427 101.543 41.5454 101.639 41.2705H102.274C102.163 41.5161 102.072 41.7282 102 41.9068C101.929 42.0866 101.866 42.2501 101.813 42.3976ZM104.228 40.4595V39.8722H107.898V40.4595C107.772 40.4315 107.646 40.4143 107.522 40.4074C107.398 40.3997 107.264 40.3958 107.12 40.3954H106.357V43.129C106.357 43.4422 106.361 43.7193 106.369 43.9593C106.376 44.2007 106.393 44.3844 106.421 44.5113H105.69C105.717 44.3848 105.735 44.2007 105.743 43.9593C105.75 43.7189 105.753 43.4422 105.753 43.129V40.3954H105.006C104.864 40.3954 104.731 40.3993 104.606 40.4074C104.481 40.4143 104.355 40.4315 104.228 40.4595ZM109.185 42.6683V44.5113H108.597V42.5577C108.597 42.2462 108.58 41.9812 108.545 41.7622C108.51 41.5445 108.475 41.3806 108.439 41.2705H109.011C109.028 41.3148 109.044 41.3759 109.061 41.4537C109.076 41.5329 109.092 41.6121 109.106 41.6921C109.121 41.773 109.131 41.8388 109.137 41.89C109.293 41.6697 109.467 41.5002 109.662 41.3823C109.858 41.2653 110.027 41.2068 110.171 41.2064C110.349 41.2064 110.491 41.2567 110.598 41.3574C110.705 41.458 110.782 41.5888 110.83 41.7493C110.878 41.9106 110.901 42.0849 110.901 42.2712L110.394 42.3817C110.394 42.223 110.363 42.0827 110.304 41.9614C110.245 41.8392 110.153 41.7777 110.028 41.7781C109.938 41.7781 109.837 41.8224 109.725 41.9106C109.611 41.9984 109.504 42.1103 109.404 42.2466C109.306 42.3839 109.233 42.5241 109.185 42.6683ZM111.236 42.9066C111.236 42.5422 111.306 42.2333 111.447 41.9799C111.587 41.7274 111.775 41.535 112.009 41.403C112.244 41.2717 112.5 41.2064 112.777 41.2064C113.07 41.2064 113.326 41.2717 113.548 41.403C113.769 41.535 113.942 41.7269 114.067 41.9799C114.192 42.2333 114.254 42.5422 114.254 42.9066C114.254 43.271 114.184 43.5782 114.044 43.8281C113.902 44.0781 113.715 44.2678 113.483 44.3969C113.249 44.5264 112.993 44.5909 112.713 44.5909C112.422 44.5909 112.166 44.5264 111.944 44.3969C111.722 44.2674 111.548 44.0781 111.423 43.8281C111.298 43.5782 111.236 43.271 111.236 42.9066H111.236ZM111.823 42.9066C111.823 43.277 111.908 43.5657 112.079 43.7722C112.249 43.9787 112.471 44.082 112.744 44.082C113.001 44.082 113.219 43.9787 113.398 43.7722C113.577 43.5657 113.666 43.277 113.666 42.9066C113.666 42.5336 113.581 42.2415 113.411 42.0302C113.24 41.8203 113.017 41.7153 112.744 41.7153C112.488 41.7153 112.271 41.8203 112.092 42.0302C111.912 42.241 111.823 42.5332 111.823 42.9066ZM115.319 40.7938C115.319 40.3167 115.416 39.9591 115.609 39.7212C115.804 39.4825 116.072 39.3633 116.415 39.3633C116.672 39.3633 116.905 39.4373 117.114 39.5857L116.971 40.0934C116.8 39.9669 116.615 39.9032 116.415 39.9036C116.25 39.9036 116.124 39.963 116.038 40.0818C115.951 40.1996 115.907 40.3945 115.907 40.6664C115.907 40.734 115.907 40.8454 115.907 40.9994C115.907 41.1539 115.907 41.329 115.907 41.5256C115.907 41.7218 115.907 41.9171 115.907 42.1111C115.907 42.3047 115.907 42.4764 115.907 42.6265C115.907 42.7775 115.907 42.8825 115.907 42.9414C115.907 43.2486 115.915 43.5455 115.93 43.832C115.944 44.1177 115.969 44.344 116.002 44.5113H115.319C115.319 44.2145 115.319 43.903 115.319 43.5769C115.319 43.2508 115.319 42.9311 115.319 42.6188C115.319 42.3064 115.319 42.0195 115.319 41.7583C115.319 41.4963 115.319 41.2795 115.319 41.1074C115.319 40.9357 115.319 40.8312 115.319 40.7938ZM116.765 41.8104H114.684V41.3496H116.765V41.8104ZM117.495 41.2705H118.132C118.132 41.5587 118.132 41.8465 118.132 42.1348C118.132 42.423 118.132 42.7117 118.132 43.0017C118.132 43.1381 118.135 43.3028 118.14 43.496C118.145 43.6896 118.152 43.8789 118.162 44.0635C118.172 44.2476 118.182 44.3969 118.194 44.5113H117.543C117.543 44.3586 117.543 44.1792 117.543 43.974C117.543 43.7692 117.543 43.5644 117.543 43.3596C117.543 43.1548 117.543 42.9772 117.543 42.827C117.543 42.5181 117.541 42.223 117.536 41.942C117.531 41.6615 117.517 41.4378 117.495 41.2705ZM117.432 40.2366C117.432 40.1188 117.469 40.0177 117.543 39.9333C117.617 39.8499 117.713 39.8086 117.83 39.8086C117.948 39.8086 118.046 39.8503 118.126 39.9333C118.204 40.0177 118.243 40.1188 118.243 40.2366C118.243 40.3537 118.203 40.4543 118.126 40.5387C118.046 40.6238 117.948 40.6664 117.83 40.6664C117.713 40.6664 117.617 40.6238 117.543 40.5387C117.469 40.4543 117.432 40.3537 117.432 40.2366ZM121.739 42.4144V44.5113H121.15V42.6997C121.15 42.4377 121.137 42.2393 121.109 42.1047C121.081 41.97 121.034 41.8797 120.967 41.8328C120.901 41.7859 120.809 41.7626 120.69 41.7622C120.535 41.7622 120.382 41.8233 120.231 41.9459C120.081 42.0672 119.964 42.2234 119.879 42.4144V44.5113H119.292V42.5577C119.292 42.2462 119.274 41.9812 119.237 41.7622C119.202 41.5445 119.167 41.3806 119.133 41.2705H119.704C119.728 41.3354 119.748 41.415 119.764 41.5084C119.781 41.6013 119.796 41.6856 119.806 41.7622C120.001 41.5376 120.183 41.3888 120.353 41.3156C120.522 41.2429 120.698 41.2064 120.88 41.2064C121.088 41.2064 121.257 41.2601 121.387 41.3681C121.518 41.4765 121.609 41.6009 121.662 41.7403C121.861 41.5269 122.048 41.3845 122.224 41.313C122.4 41.2421 122.572 41.2064 122.74 41.2064C123.061 41.2064 123.285 41.3096 123.41 41.5161C123.535 41.7226 123.598 42.0221 123.598 42.4144V44.5113H123.009V42.7633C123.009 42.4901 122.996 42.2815 122.968 42.1374C122.941 41.9932 122.894 41.8947 122.827 41.8418C122.76 41.7889 122.667 41.7622 122.549 41.7622C122.394 41.7622 122.244 41.8211 122.097 41.9395C121.951 42.0565 121.832 42.2148 121.739 42.4144ZM127.553 44.5113H127.013C126.983 44.4378 126.952 44.3427 126.917 44.2265C126.881 44.1112 126.856 43.9942 126.839 43.8763C126.646 44.1091 126.447 44.2863 126.241 44.4085C126.036 44.5298 125.822 44.5909 125.6 44.5909C124.922 44.5909 124.583 44.1353 124.583 43.2241C124.583 43.2095 124.583 43.1566 124.583 43.0653C124.583 42.9741 124.583 42.8709 124.583 42.7556C124.583 42.6403 124.583 42.537 124.583 42.4458C124.583 42.3546 124.583 42.3017 124.583 42.2871C124.583 42.0857 124.58 41.9136 124.572 41.7699C124.566 41.6267 124.549 41.4602 124.519 41.2705H125.17V43.0339C125.17 43.394 125.21 43.656 125.29 43.8204C125.369 43.9843 125.509 44.0665 125.71 44.066C125.835 44.066 125.968 44.0192 126.11 43.9258C126.251 43.8311 126.38 43.715 126.499 43.5769C126.617 43.4396 126.704 43.3067 126.759 43.1772V42.2871C126.759 42.1473 126.758 42.0255 126.755 41.921C126.754 41.8177 126.748 41.7157 126.739 41.6151C126.729 41.5144 126.715 41.3995 126.696 41.2705H127.348V43.0808C127.348 43.388 127.365 43.6586 127.401 43.8931C127.438 44.1276 127.488 44.3336 127.553 44.5113ZM128.905 39.427V44.5113H128.316C128.316 44.2553 128.316 43.9826 128.316 43.6926C128.316 43.4035 128.316 43.1153 128.316 42.827C128.316 42.5388 128.316 42.2673 128.316 42.0122C128.316 41.757 128.316 41.5342 128.316 41.3432C128.316 41.1521 128.316 41.011 128.316 40.9203C128.316 40.5791 128.314 40.2788 128.31 40.0194C128.305 39.76 128.292 39.5625 128.269 39.427H128.905ZM128.746 42.7633L130.192 41.2705H130.986L129.242 42.8468L128.746 42.7633ZM130.303 44.5113L128.825 42.7633L129.159 42.4144L131.081 44.5113H130.303ZM134.097 43.2878L133.671 44.5113H133.019C133.076 44.3818 133.138 44.236 133.204 44.0729C133.27 43.9099 133.357 43.6797 133.464 43.3828L134.736 39.8722H135.419L136.69 43.3828C136.795 43.678 136.883 43.9077 136.952 44.0729C137.019 44.2386 137.081 44.3848 137.135 44.5113H136.484L136.052 43.2878H134.097ZM134.269 42.796H135.88L135.069 40.4918L134.269 42.796ZM137.913 44.1611C137.913 44.0432 137.956 43.9421 138.041 43.8578C138.126 43.7744 138.227 43.733 138.343 43.733C138.462 43.733 138.563 43.7748 138.646 43.8578C138.73 43.9421 138.771 44.0432 138.771 44.1611C138.771 44.2781 138.729 44.3788 138.646 44.4631C138.563 44.5483 138.462 44.5909 138.343 44.5909C138.227 44.5909 138.126 44.5483 138.041 44.4631C137.956 44.3788 137.913 44.2781 137.913 44.1611ZM142.999 42.2389C142.999 41.8474 142.942 41.5109 142.828 41.2287C142.715 40.9465 142.557 40.7297 142.355 40.5778C142.153 40.4251 141.917 40.3489 141.648 40.3485C141.381 40.3485 141.144 40.4212 140.938 40.5675C140.734 40.7142 140.573 40.922 140.455 41.1909C140.339 41.4598 140.281 41.7777 140.281 42.1438C140.281 42.5293 140.338 42.864 140.451 43.1484C140.564 43.4323 140.723 43.6509 140.928 43.8045C141.133 43.9581 141.373 44.0351 141.648 44.0351C141.908 44.0351 142.141 43.9636 142.344 43.8204C142.548 43.6771 142.707 43.4715 142.823 43.2034C142.94 42.9363 142.999 42.6145 142.999 42.2389ZM143.619 42.1593C143.619 42.5409 143.562 42.8821 143.449 43.1824C143.337 43.4835 143.186 43.7386 142.996 43.9477C142.807 44.156 142.593 44.3151 142.355 44.4257C142.116 44.5358 141.869 44.5909 141.615 44.5909C141.359 44.5909 141.114 44.5389 140.88 44.4347C140.646 44.3315 140.438 44.1792 140.254 43.9778C140.07 43.7765 139.926 43.5291 139.82 43.2357C139.714 42.9423 139.662 42.605 139.662 42.223C139.662 41.8422 139.718 41.5015 139.829 41.2012C139.942 40.9018 140.094 40.6471 140.286 40.4371C140.478 40.2272 140.694 40.0671 140.935 39.957C141.175 39.8477 141.423 39.7931 141.679 39.7931C141.931 39.7931 142.174 39.8447 142.406 39.948C142.638 40.0521 142.845 40.2048 143.026 40.4061C143.209 40.6075 143.353 40.8549 143.46 41.1478C143.565 41.4413 143.618 41.7781 143.619 42.1593ZM144.587 44.1611C144.587 44.0432 144.63 43.9421 144.715 43.8578C144.8 43.7744 144.9 43.733 145.017 43.733C145.135 43.733 145.236 43.7748 145.32 43.8578C145.403 43.9421 145.445 44.0432 145.445 44.1611C145.445 44.2781 145.403 44.3788 145.32 44.4631C145.236 44.5483 145.135 44.5909 145.017 44.5909C144.9 44.5909 144.8 44.5483 144.715 44.4631C144.629 44.3788 144.587 44.2781 144.587 44.1611Z" fill="black"/>
<g clip-path="url(#clip4_2285_3628)">
<g clip-path="url(#clip5_2285_3628)">
<g clip-path="url(#clip6_2285_3628)">
<g clip-path="url(#clip7_2285_3628)">
<g clip-path="url(#clip8_2285_3628)">
<g clip-path="url(#clip9_2285_3628)">
<g clip-path="url(#clip10_2285_3628)">
<path d="M18.8713 30.7792H15.7473L12.6328 15.6792H14.6414L16.8391 26.9605L17.2503 29.1345H17.4629L17.8647 26.9605L20.0765 16.0667H22.9689L25.1807 26.9605L25.5824 29.1345H25.7951L26.2205 26.9605L28.4134 15.6792H30.4031L27.2933 30.7792H24.1977L22.449 22.0925L21.6219 17.6878H21.4329L20.5964 22.0925L18.8713 30.7792ZM37.3222 31.0769C35.668 31.0769 34.414 30.6295 33.5602 29.7347C32.7063 28.8399 32.2794 27.5528 32.2794 25.8734V24.1153C32.2794 22.4454 32.7079 21.1646 33.5649 20.273C34.4251 19.3845 35.6775 18.9402 37.3222 18.9402C38.9763 18.9402 40.2319 19.3845 41.0889 20.273C41.9428 21.1646 42.3697 22.4454 42.3697 24.1153V25.8734C42.3697 27.5528 41.9428 28.8399 41.0889 29.7347C40.2319 30.6295 38.9763 31.0769 37.3222 31.0769ZM37.3222 29.5126C38.3462 29.5126 39.1244 29.2101 39.6569 28.6052C40.1894 27.9971 40.4556 27.1227 40.4556 25.9821V24.0066C40.4556 22.8723 40.1894 22.0043 39.6569 21.4025C39.1244 20.8007 38.3462 20.4998 37.3222 20.4998C36.3076 20.4998 35.5325 20.8007 34.9969 21.4025C34.4613 22.0043 34.1935 22.8723 34.1935 24.0066V25.9821C34.1935 27.1227 34.4613 27.9971 34.9969 28.6052C35.5325 29.2101 36.3076 29.5126 37.3222 29.5126ZM46.8454 23.723L46.4058 22.2485L46.8784 22.2249C47.1337 21.2481 47.5669 20.4778 48.1781 19.9138C48.7957 19.3498 49.6117 19.0678 50.6263 19.0678C50.8783 19.0678 51.1052 19.0883 51.3068 19.1292C51.5053 19.167 51.6834 19.2143 51.8409 19.271L51.959 21.1237C51.7637 21.0607 51.5463 21.0102 51.3068 20.9724C51.0674 20.9315 50.8011 20.911 50.5081 20.911C49.6417 20.911 48.8871 21.152 48.2443 21.6341C47.6047 22.1162 47.1384 22.8125 46.8454 23.723ZM46.9399 30.7792H45.0258V19.2474H46.8926L46.7981 22.6502L46.9399 22.792V30.7792ZM55.8014 30.7792H53.8968V15.1215H55.8014V30.7792ZM62.7819 31.0297C61.3956 31.0297 60.3401 30.5996 59.6154 29.7394C58.8907 28.8793 58.5284 27.6268 58.5284 25.9821V24.0775C58.5284 22.4234 58.8954 21.1615 59.6296 20.2919C60.3606 19.4223 61.4397 18.9875 62.867 18.9875C63.5759 18.9875 64.1903 19.1072 64.7102 19.3466C65.2301 19.5861 65.6507 19.9232 65.9721 20.358C66.2966 20.7897 66.514 21.3017 66.6243 21.894H67.2481L66.681 23.6522C66.6589 22.9747 66.5077 22.406 66.2273 21.946C65.9469 21.486 65.5688 21.1378 65.093 20.9015C64.6172 20.6652 64.0721 20.5471 63.4578 20.5471C62.481 20.5471 61.7343 20.8306 61.2176 21.3978C60.7008 21.9649 60.4425 22.7999 60.4425 23.9026V26.1003C60.4425 27.1873 60.7008 28.0144 61.2176 28.5815C61.7343 29.1487 62.481 29.4322 63.4578 29.4322C64.0406 29.4322 64.5558 29.3204 65.0032 29.0967C65.4538 28.8698 65.8256 28.5579 66.1186 28.1609C66.4147 27.7639 66.618 27.3133 66.7282 26.8092L67.2009 28.1798H66.6337C66.5234 28.6997 66.3123 29.1754 66.0004 29.6071C65.6916 30.0419 65.2742 30.3869 64.748 30.6421C64.225 30.9005 63.5696 31.0297 62.7819 31.0297ZM68.5478 30.7792H66.6337L66.7188 27.9908L66.681 27.3764V22.5557L66.6952 22.154L66.6479 18.8788V15.1215H68.5478V30.7792ZM77.4424 30.7792H75.4574L80.1836 15.6792H83.2792L88.0195 30.7792H86.0345L81.885 17.0025H81.5872L77.4424 30.7792ZM85.1696 26.3224H78.2931V24.6919H85.1696V26.3224ZM91.9753 23.723L91.5358 22.2485L92.0084 22.2249C92.2604 21.2481 92.6937 20.4778 93.3081 19.9138C93.9225 19.3498 94.7385 19.0678 95.7562 19.0678C96.0083 19.0678 96.2351 19.0883 96.4368 19.1292C96.6353 19.167 96.8133 19.2143 96.9708 19.271L97.089 21.1237C96.8936 21.0607 96.6762 21.0102 96.4368 20.9724C96.1942 20.9315 95.9279 20.911 95.638 20.911C94.7716 20.911 94.017 21.152 93.3742 21.6341C92.7315 22.1162 92.2652 22.8125 91.9753 23.723ZM92.0698 30.7792H90.1557V19.2474H92.0226L91.928 22.6502L92.0698 22.792V30.7792ZM103.162 31.0155C102.274 31.0155 101.557 30.8816 101.012 30.6138C100.47 30.346 100.076 29.9395 99.8301 29.3944C99.5875 28.8525 99.4662 28.1751 99.4662 27.3622V20.0839H101.357V27.14C101.357 27.8962 101.53 28.4539 101.877 28.8131C102.223 29.1691 102.806 29.3472 103.625 29.3472C104.088 29.3472 104.534 29.2967 104.963 29.1959C105.394 29.0919 105.799 28.9454 106.177 28.7564L105.998 30.4011C105.629 30.5901 105.196 30.7398 104.698 30.8501C104.203 30.9603 103.691 31.0155 103.162 31.0155ZM105.88 20.9488H97.5758V19.4128H106.059L105.88 20.9488ZM101.309 19.6019H99.4757L99.4662 16.3644L101.39 16.114L101.309 19.6019ZM110.261 30.7792H108.347V19.2474H110.261V30.7792ZM109.306 17.3569C108.912 17.3569 108.619 17.253 108.427 17.045C108.232 16.8339 108.134 16.5472 108.134 16.1849V16.1281C108.134 15.7563 108.232 15.4681 108.427 15.2633C108.619 15.0585 108.912 14.9561 109.306 14.9561C109.7 14.9561 109.994 15.0585 110.19 15.2633C110.388 15.4681 110.488 15.7563 110.488 16.1281V16.1849C110.488 16.5566 110.388 16.8449 110.19 17.0497C109.994 17.2545 109.7 17.3569 109.306 17.3569ZM117.87 31.0391C116.216 31.0391 114.985 30.5917 114.179 29.6969C113.372 28.8021 112.969 27.5355 112.969 25.8971V24.1011C112.969 22.4564 113.374 21.1914 114.183 20.306C114.996 19.4175 116.225 18.9733 117.87 18.9733C118.358 18.9733 118.804 19.019 119.207 19.1103C119.607 19.2017 119.967 19.3199 120.285 19.4648C120.606 19.6097 120.877 19.761 121.098 19.9185L121.263 21.5868C120.891 21.3033 120.452 21.0622 119.945 20.8637C119.437 20.6684 118.84 20.5707 118.153 20.5707C117.051 20.5707 116.23 20.8763 115.691 21.4876C115.152 22.0957 114.883 22.9826 114.883 24.1484V25.8498C114.883 26.9935 115.152 27.8726 115.691 28.487C116.23 29.1014 117.051 29.4086 118.153 29.4086C118.862 29.4086 119.475 29.3093 119.992 29.1109C120.509 28.9155 120.967 28.676 121.367 28.3925L121.192 30.0797C120.846 30.316 120.392 30.535 119.831 30.7366C119.273 30.9383 118.62 31.0391 117.87 31.0391ZM125.644 30.7792H123.74V15.1215H125.644V30.7792ZM133.665 31.0391C131.91 31.0391 130.586 30.609 129.695 29.7489C128.806 28.8919 128.362 27.6631 128.362 26.0625V24.0066C128.362 22.384 128.775 21.1347 129.6 20.2588C130.429 19.3797 131.639 18.9402 133.23 18.9402C134.298 18.9402 135.191 19.1387 135.91 19.5357C136.628 19.9327 137.168 20.4982 137.531 21.2324C137.893 21.9633 138.074 22.8377 138.074 23.8554V24.2807C138.074 24.5328 138.063 24.7849 138.041 25.0369C138.022 25.289 137.997 25.5363 137.965 25.7789H136.207C136.223 25.4008 136.232 25.0432 136.236 24.7061C136.239 24.3658 136.24 24.0539 136.24 23.7703C136.24 23.0708 136.128 22.4785 135.905 21.9933C135.681 21.5081 135.346 21.1378 134.898 20.8826C134.454 20.6274 133.898 20.4998 133.23 20.4998C132.237 20.4998 131.492 20.7865 130.994 21.36C130.5 21.9366 130.252 22.7605 130.252 23.8317V24.9282L130.262 25.1645V26.2657C130.262 26.7446 130.333 27.1779 130.474 27.5654C130.616 27.9498 130.838 28.2822 131.141 28.5626C131.446 28.843 131.832 29.0557 132.299 29.2006C132.768 29.3456 133.326 29.4181 133.972 29.4181C134.722 29.4181 135.42 29.3204 136.065 29.125C136.711 28.9265 137.318 28.6587 137.885 28.3216L137.705 29.9757C137.195 30.2971 136.601 30.5555 135.924 30.7508C135.246 30.943 134.493 31.0391 133.665 31.0391ZM137.564 25.7789H129.364V24.3374H137.564V25.7789ZM144.228 31.0391C143.298 31.0391 142.487 30.9383 141.794 30.7366C141.1 30.535 140.525 30.316 140.069 30.0797L139.889 28.3074C140.466 28.6067 141.099 28.8667 141.789 29.0872C142.476 29.3078 143.257 29.4181 144.133 29.4181C145.022 29.4181 145.691 29.2763 146.142 28.9927C146.589 28.7123 146.813 28.2917 146.813 27.7308V27.5985C146.813 27.2361 146.729 26.9368 146.562 26.7005C146.392 26.4642 146.086 26.2563 145.645 26.0767C145.204 25.8939 144.577 25.7128 143.764 25.5332C142.797 25.3189 142.033 25.0684 141.472 24.7817C140.914 24.495 140.516 24.1389 140.276 23.7136C140.034 23.2882 139.913 22.7684 139.913 22.154V22.0453C139.913 21.037 140.264 20.273 140.966 19.7531C141.666 19.2332 142.721 18.9733 144.133 18.9733C145.037 18.9733 145.823 19.0757 146.491 19.2805C147.156 19.4853 147.701 19.7137 148.127 19.9658L148.301 21.5868C147.791 21.2875 147.205 21.0386 146.543 20.8401C145.882 20.6448 145.137 20.5471 144.308 20.5471C143.709 20.5471 143.226 20.6085 142.857 20.7314C142.485 20.8511 142.217 21.0244 142.053 21.2513C141.887 21.475 141.803 21.7444 141.803 22.0594V22.154C141.803 22.5006 141.887 22.7936 142.053 23.033C142.217 23.2725 142.515 23.482 142.947 23.6616C143.375 23.8381 143.971 24.0082 144.733 24.172C145.719 24.3705 146.502 24.6068 147.082 24.881C147.659 25.1582 148.073 25.508 148.325 25.9302C148.577 26.3492 148.703 26.8896 148.703 27.5512V27.7544C148.703 28.8415 148.325 29.6607 147.569 30.212C146.813 30.7634 145.699 31.0391 144.228 31.0391Z" fill="white"/>
</g>
</g>
</g>
</g>
</g>
</g>
</g>
</g>
</g>
</mask>
<g mask="url(#mask0_2285_3628)">
<path d="M161.352 0.0292969H-0.015625V46.0045H161.352V0.0292969Z" fill="url(#paint0_linear_2285_3628)"/>
</g>
<mask id="mask1_2285_3628" style="mask-type:luminance" maskUnits="userSpaceOnUse" x="-1" y="0" width="163" height="47">
<g clip-path="url(#clip11_2285_3628)">
<g clip-path="url(#clip12_2285_3628)">
<path d="M-0.015625 43.6168V0.0292969H161.352V43.6168H149.807V42.1631H159.898V1.48302H1.4381V42.1631H91.3498V43.6168H-0.015625Z" fill="black"/>
<path d="M95.7109 39.427H96.3472C96.3472 39.6597 96.3472 39.9075 96.3472 40.1717C96.3472 40.4354 96.3472 40.6884 96.3472 40.9306C96.3472 41.1719 96.3472 41.3789 96.3472 41.5514C96.3472 41.7239 96.3472 41.8371 96.3472 41.89C96.4957 41.6947 96.6695 41.532 96.8691 41.4017C97.0696 41.2713 97.3036 41.2064 97.5708 41.2064C97.7842 41.2064 97.9739 41.2739 98.1395 41.4094C98.3043 41.5449 98.4334 41.7321 98.5263 41.9717C98.6201 42.2114 98.667 42.4858 98.667 42.796C98.667 43.1578 98.6033 43.4732 98.4755 43.7421C98.3491 44.011 98.1705 44.2196 97.9404 44.3681C97.7102 44.5165 97.4387 44.5905 97.1255 44.5909C96.8687 44.5909 96.6269 44.5586 96.4006 44.4945C96.1743 44.4296 95.96 44.3659 95.7591 44.3044C95.7591 44.2175 95.7591 44.0897 95.7591 43.9206C95.7591 43.7515 95.7591 43.5567 95.7591 43.336C95.7591 43.1157 95.7591 42.8864 95.7591 42.6489C95.7591 42.4118 95.7591 42.1808 95.7591 41.9549C95.7591 41.7295 95.7591 41.526 95.7591 41.3445C95.7591 41.1629 95.7591 41.0218 95.7591 40.9203C95.7591 40.7675 95.7587 40.5985 95.7574 40.4126C95.7565 40.2259 95.7527 40.0448 95.7458 39.8684C95.7398 39.6924 95.7281 39.5453 95.7109 39.427ZM96.3472 42.6528V43.9232C96.5034 43.989 96.6385 44.0346 96.7521 44.0596C96.8657 44.0858 96.9904 44.0987 97.1255 44.0987C97.4077 44.0987 97.6392 43.9895 97.8208 43.7709C98.0032 43.5532 98.0939 43.265 98.0939 42.9066C98.0939 42.5525 98.0324 42.2737 97.9094 42.0694C97.7855 41.8646 97.6087 41.7622 97.3793 41.7622C97.1823 41.7622 96.9878 41.8444 96.7964 42.0083C96.6045 42.1731 96.4548 42.3877 96.3472 42.6528ZM99.6991 41.2705L100.907 44.3216L100.637 45.0362L99.5726 42.3976C99.5128 42.2535 99.4435 42.0918 99.3657 41.9119C99.2874 41.7312 99.1867 41.5174 99.0637 41.2705H99.6991ZM101.813 42.3976L101.05 44.5113C100.903 44.9157 100.76 45.2259 100.619 45.4423C100.479 45.6583 100.332 45.8063 100.181 45.8859C100.03 45.965 99.8639 46.0042 99.6836 46.0046C99.5395 46.0046 99.4027 45.9814 99.2736 45.9341C99.1441 45.8863 99.0215 45.8201 98.9049 45.7349L99.0951 45.2259C99.1635 45.2814 99.253 45.3352 99.3631 45.3873C99.4732 45.4384 99.5799 45.4643 99.6836 45.4643C99.7791 45.4643 99.872 45.4372 99.962 45.3834C100.052 45.3296 100.146 45.2216 100.242 45.0594C100.338 44.8972 100.444 44.6563 100.558 44.3371C100.575 44.2885 100.597 44.2248 100.626 44.1456C100.655 44.0673 100.686 43.9778 100.722 43.8763C100.801 43.6535 100.893 43.3915 100.999 43.0912C101.105 42.79 101.214 42.4802 101.326 42.1619C101.439 41.8427 101.543 41.5454 101.639 41.2705H102.274C102.163 41.5161 102.072 41.7282 102 41.9068C101.929 42.0866 101.866 42.2501 101.813 42.3976ZM104.228 40.4595V39.8722H107.898V40.4595C107.772 40.4315 107.646 40.4143 107.522 40.4074C107.398 40.3997 107.264 40.3958 107.12 40.3954H106.357V43.129C106.357 43.4422 106.361 43.7193 106.369 43.9593C106.376 44.2007 106.393 44.3844 106.421 44.5113H105.69C105.717 44.3848 105.735 44.2007 105.743 43.9593C105.75 43.7189 105.753 43.4422 105.753 43.129V40.3954H105.006C104.864 40.3954 104.731 40.3993 104.606 40.4074C104.481 40.4143 104.355 40.4315 104.228 40.4595ZM109.185 42.6683V44.5113H108.597V42.5577C108.597 42.2462 108.58 41.9812 108.545 41.7622C108.51 41.5445 108.475 41.3806 108.439 41.2705H109.011C109.028 41.3148 109.044 41.3759 109.061 41.4537C109.076 41.5329 109.092 41.6121 109.106 41.6921C109.121 41.773 109.131 41.8388 109.137 41.89C109.293 41.6697 109.467 41.5002 109.662 41.3823C109.858 41.2653 110.027 41.2068 110.171 41.2064C110.349 41.2064 110.491 41.2567 110.598 41.3574C110.705 41.458 110.782 41.5888 110.83 41.7493C110.878 41.9106 110.901 42.0849 110.901 42.2712L110.394 42.3817C110.394 42.223 110.363 42.0827 110.304 41.9614C110.245 41.8392 110.153 41.7777 110.028 41.7781C109.938 41.7781 109.837 41.8224 109.725 41.9106C109.611 41.9984 109.504 42.1103 109.404 42.2466C109.306 42.3839 109.233 42.5241 109.185 42.6683ZM111.236 42.9066C111.236 42.5422 111.306 42.2333 111.447 41.9799C111.587 41.7274 111.775 41.535 112.009 41.403C112.244 41.2717 112.5 41.2064 112.777 41.2064C113.07 41.2064 113.326 41.2717 113.548 41.403C113.769 41.535 113.942 41.7269 114.067 41.9799C114.192 42.2333 114.254 42.5422 114.254 42.9066C114.254 43.271 114.184 43.5782 114.044 43.8281C113.902 44.0781 113.715 44.2678 113.483 44.3969C113.249 44.5264 112.993 44.5909 112.713 44.5909C112.422 44.5909 112.166 44.5264 111.944 44.3969C111.722 44.2674 111.548 44.0781 111.423 43.8281C111.298 43.5782 111.236 43.271 111.236 42.9066H111.236ZM111.823 42.9066C111.823 43.277 111.908 43.5657 112.079 43.7722C112.249 43.9787 112.471 44.082 112.744 44.082C113.001 44.082 113.219 43.9787 113.398 43.7722C113.577 43.5657 113.666 43.277 113.666 42.9066C113.666 42.5336 113.581 42.2415 113.411 42.0302C113.24 41.8203 113.017 41.7153 112.744 41.7153C112.488 41.7153 112.271 41.8203 112.092 42.0302C111.912 42.241 111.823 42.5332 111.823 42.9066ZM115.319 40.7938C115.319 40.3167 115.416 39.9591 115.609 39.7212C115.804 39.4825 116.072 39.3633 116.415 39.3633C116.672 39.3633 116.905 39.4373 117.114 39.5857L116.971 40.0934C116.8 39.9669 116.615 39.9032 116.415 39.9036C116.25 39.9036 116.124 39.963 116.038 40.0818C115.951 40.1996 115.907 40.3945 115.907 40.6664C115.907 40.734 115.907 40.8454 115.907 40.9994C115.907 41.1539 115.907 41.329 115.907 41.5256C115.907 41.7218 115.907 41.9171 115.907 42.1111C115.907 42.3047 115.907 42.4764 115.907 42.6265C115.907 42.7775 115.907 42.8825 115.907 42.9414C115.907 43.2486 115.915 43.5455 115.93 43.832C115.944 44.1177 115.969 44.344 116.002 44.5113H115.319C115.319 44.2145 115.319 43.903 115.319 43.5769C115.319 43.2508 115.319 42.9311 115.319 42.6188C115.319 42.3064 115.319 42.0195 115.319 41.7583C115.319 41.4963 115.319 41.2795 115.319 41.1074C115.319 40.9357 115.319 40.8312 115.319 40.7938ZM116.765 41.8104H114.684V41.3496H116.765V41.8104ZM117.495 41.2705H118.132C118.132 41.5587 118.132 41.8465 118.132 42.1348C118.132 42.423 118.132 42.7117 118.132 43.0017C118.132 43.1381 118.135 43.3028 118.14 43.496C118.145 43.6896 118.152 43.8789 118.162 44.0635C118.172 44.2476 118.182 44.3969 118.194 44.5113H117.543C117.543 44.3586 117.543 44.1792 117.543 43.974C117.543 43.7692 117.543 43.5644 117.543 43.3596C117.543 43.1548 117.543 42.9772 117.543 42.827C117.543 42.5181 117.541 42.223 117.536 41.942C117.531 41.6615 117.517 41.4378 117.495 41.2705ZM117.432 40.2366C117.432 40.1188 117.469 40.0177 117.543 39.9333C117.617 39.8499 117.713 39.8086 117.83 39.8086C117.948 39.8086 118.046 39.8503 118.126 39.9333C118.204 40.0177 118.243 40.1188 118.243 40.2366C118.243 40.3537 118.203 40.4543 118.126 40.5387C118.046 40.6238 117.948 40.6664 117.83 40.6664C117.713 40.6664 117.617 40.6238 117.543 40.5387C117.469 40.4543 117.432 40.3537 117.432 40.2366ZM121.739 42.4144V44.5113H121.15V42.6997C121.15 42.4377 121.137 42.2393 121.109 42.1047C121.081 41.97 121.034 41.8797 120.967 41.8328C120.901 41.7859 120.809 41.7626 120.69 41.7622C120.535 41.7622 120.382 41.8233 120.231 41.9459C120.081 42.0672 119.964 42.2234 119.879 42.4144V44.5113H119.292V42.5577C119.292 42.2462 119.274 41.9812 119.237 41.7622C119.202 41.5445 119.167 41.3806 119.133 41.2705H119.704C119.728 41.3354 119.748 41.415 119.764 41.5084C119.781 41.6013 119.796 41.6856 119.806 41.7622C120.001 41.5376 120.183 41.3888 120.353 41.3156C120.522 41.2429 120.698 41.2064 120.88 41.2064C121.088 41.2064 121.257 41.2601 121.387 41.3681C121.518 41.4765 121.609 41.6009 121.662 41.7403C121.861 41.5269 122.048 41.3845 122.224 41.313C122.4 41.2421 122.572 41.2064 122.74 41.2064C123.061 41.2064 123.285 41.3096 123.41 41.5161C123.535 41.7226 123.598 42.0221 123.598 42.4144V44.5113H123.009V42.7633C123.009 42.4901 122.996 42.2815 122.968 42.1374C122.941 41.9932 122.894 41.8947 122.827 41.8418C122.76 41.7889 122.667 41.7622 122.549 41.7622C122.394 41.7622 122.244 41.8211 122.097 41.9395C121.951 42.0565 121.832 42.2148 121.739 42.4144ZM127.553 44.5113H127.013C126.983 44.4378 126.952 44.3427 126.917 44.2265C126.881 44.1112 126.856 43.9942 126.839 43.8763C126.646 44.1091 126.447 44.2863 126.241 44.4085C126.036 44.5298 125.822 44.5909 125.6 44.5909C124.922 44.5909 124.583 44.1353 124.583 43.2241C124.583 43.2095 124.583 43.1566 124.583 43.0653C124.583 42.9741 124.583 42.8709 124.583 42.7556C124.583 42.6403 124.583 42.537 124.583 42.4458C124.583 42.3546 124.583 42.3017 124.583 42.2871C124.583 42.0857 124.58 41.9136 124.572 41.7699C124.566 41.6267 124.549 41.4602 124.519 41.2705H125.17V43.0339C125.17 43.394 125.21 43.656 125.29 43.8204C125.369 43.9843 125.509 44.0665 125.71 44.066C125.835 44.066 125.968 44.0192 126.11 43.9258C126.251 43.8311 126.38 43.715 126.499 43.5769C126.617 43.4396 126.704 43.3067 126.759 43.1772V42.2871C126.759 42.1473 126.758 42.0255 126.755 41.921C126.754 41.8177 126.748 41.7157 126.739 41.6151C126.729 41.5144 126.715 41.3995 126.696 41.2705H127.348V43.0808C127.348 43.388 127.365 43.6586 127.401 43.8931C127.438 44.1276 127.488 44.3336 127.553 44.5113ZM128.905 39.427V44.5113H128.316C128.316 44.2553 128.316 43.9826 128.316 43.6926C128.316 43.4035 128.316 43.1153 128.316 42.827C128.316 42.5388 128.316 42.2673 128.316 42.0122C128.316 41.757 128.316 41.5342 128.316 41.3432C128.316 41.1521 128.316 41.011 128.316 40.9203C128.316 40.5791 128.314 40.2788 128.31 40.0194C128.305 39.76 128.292 39.5625 128.269 39.427H128.905ZM128.746 42.7633L130.192 41.2705H130.986L129.242 42.8468L128.746 42.7633ZM130.303 44.5113L128.825 42.7633L129.159 42.4144L131.081 44.5113H130.303ZM134.097 43.2878L133.671 44.5113H133.019C133.076 44.3818 133.138 44.236 133.204 44.0729C133.27 43.9099 133.357 43.6797 133.464 43.3828L134.736 39.8722H135.419L136.69 43.3828C136.795 43.678 136.883 43.9077 136.952 44.0729C137.019 44.2386 137.081 44.3848 137.135 44.5113H136.484L136.052 43.2878H134.097ZM134.269 42.796H135.88L135.069 40.4918L134.269 42.796ZM137.913 44.1611C137.913 44.0432 137.956 43.9421 138.041 43.8578C138.126 43.7744 138.227 43.733 138.343 43.733C138.462 43.733 138.563 43.7748 138.646 43.8578C138.73 43.9421 138.771 44.0432 138.771 44.1611C138.771 44.2781 138.729 44.3788 138.646 44.4631C138.563 44.5483 138.462 44.5909 138.343 44.5909C138.227 44.5909 138.126 44.5483 138.041 44.4631C137.956 44.3788 137.913 44.2781 137.913 44.1611ZM142.999 42.2389C142.999 41.8474 142.942 41.5109 142.828 41.2287C142.715 40.9465 142.557 40.7297 142.355 40.5778C142.153 40.4251 141.917 40.3489 141.648 40.3485C141.381 40.3485 141.144 40.4212 140.938 40.5675C140.734 40.7142 140.573 40.922 140.455 41.1909C140.339 41.4598 140.281 41.7777 140.281 42.1438C140.281 42.5293 140.338 42.864 140.451 43.1484C140.564 43.4323 140.723 43.6509 140.928 43.8045C141.133 43.9581 141.373 44.0351 141.648 44.0351C141.908 44.0351 142.141 43.9636 142.344 43.8204C142.548 43.6771 142.707 43.4715 142.823 43.2034C142.94 42.9363 142.999 42.6145 142.999 42.2389ZM143.619 42.1593C143.619 42.5409 143.562 42.8821 143.449 43.1824C143.337 43.4835 143.186 43.7386 142.996 43.9477C142.807 44.156 142.593 44.3151 142.355 44.4257C142.116 44.5358 141.869 44.5909 141.615 44.5909C141.359 44.5909 141.114 44.5389 140.88 44.4347C140.646 44.3315 140.438 44.1792 140.254 43.9778C140.07 43.7765 139.926 43.5291 139.82 43.2357C139.714 42.9423 139.662 42.605 139.662 42.223C139.662 41.8422 139.718 41.5015 139.829 41.2012C139.942 40.9018 140.094 40.6471 140.286 40.4371C140.478 40.2272 140.694 40.0671 140.935 39.957C141.175 39.8477 141.423 39.7931 141.679 39.7931C141.931 39.7931 142.174 39.8447 142.406 39.948C142.638 40.0521 142.845 40.2048 143.026 40.4061C143.209 40.6075 143.353 40.8549 143.46 41.1478C143.565 41.4413 143.618 41.7781 143.619 42.1593ZM144.587 44.1611C144.587 44.0432 144.63 43.9421 144.715 43.8578C144.8 43.7744 144.9 43.733 145.017 43.733C145.135 43.733 145.236 43.7748 145.32 43.8578C145.403 43.9421 145.445 44.0432 145.445 44.1611C145.445 44.2781 145.403 44.3788 145.32 44.4631C145.236 44.5483 145.135 44.5909 145.017 44.5909C144.9 44.5909 144.8 44.5483 144.715 44.4631C144.629 44.3788 144.587 44.2781 144.587 44.1611Z" fill="white"/>
</g>
</g>
</mask>
<g mask="url(#mask1_2285_3628)">
<path d="M161.352 0.0292969H-0.015625V46.0045H161.352V0.0292969Z" fill="url(#paint1_linear_2285_3628)"/>
</g>
</g>
</g>
<defs>
<linearGradient id="paint0_linear_2285_3628" x1="-0.015625" y1="23.0169" x2="161.352" y2="23.0169" gradientUnits="userSpaceOnUse">
<stop stop-color="#FFA62E"/>
<stop offset="1" stop-color="#F71B3D"/>
</linearGradient>
<linearGradient id="paint1_linear_2285_3628" x1="-0.015625" y1="23.0169" x2="161.352" y2="23.0169" gradientUnits="userSpaceOnUse">
<stop stop-color="#FFA62E"/>
<stop offset="1" stop-color="#F71B3D"/>
</linearGradient>
<clipPath id="clip0_2285_3628">
<rect width="161.333" height="46.0338" fill="white"/>
</clipPath>
<clipPath id="clip1_2285_3628">
<rect width="161.368" height="45.9752" fill="white" transform="translate(-0.015625 0.0292969)"/>
</clipPath>
<clipPath id="clip2_2285_3628">
<rect width="161.368" height="45.9752" fill="white" transform="translate(-0.015625 0.0292969)"/>
</clipPath>
<clipPath id="clip3_2285_3628">
<rect width="161.368" height="45.9752" fill="white" transform="translate(-0.015625 0.0292969)"/>
</clipPath>
<clipPath id="clip4_2285_3628">
<rect width="136.129" height="16.1209" fill="white" transform="translate(12.6016 14.9561)"/>
</clipPath>
<clipPath id="clip5_2285_3628">
<rect width="136.129" height="16.1209" fill="white" transform="translate(12.6016 14.9561)"/>
</clipPath>
<clipPath id="clip6_2285_3628">
<rect width="136.129" height="16.1209" fill="white" transform="translate(12.6016 14.9561)"/>
</clipPath>
<clipPath id="clip7_2285_3628">
<rect width="136.129" height="16.1209" fill="white" transform="translate(12.6016 14.9561)"/>
</clipPath>
<clipPath id="clip8_2285_3628">
<rect width="136.129" height="16.1209" fill="white" transform="translate(12.6016 14.9561)"/>
</clipPath>
<clipPath id="clip9_2285_3628">
<rect width="136.129" height="16.1209" fill="white" transform="translate(12.6016 14.9561)"/>
</clipPath>
<clipPath id="clip10_2285_3628">
<rect width="136.129" height="16.1209" fill="white" transform="translate(12.6016 14.9561)"/>
</clipPath>
<clipPath id="clip11_2285_3628">
<rect width="161.368" height="45.9752" fill="white" transform="translate(-0.015625 0.0292969)"/>
</clipPath>
<clipPath id="clip12_2285_3628">
<rect width="161.368" height="45.9752" fill="white" transform="translate(-0.015625 0.0292969)"/>
</clipPath>
</defs>
</svg>
