<svg xmlns="http://www.w3.org/2000/svg" version="1.1" xmlns:xlink="http://www.w3.org/1999/xlink" xmlns:svgjs="http://svgjs.dev/svgjs" width="1500" height="1500" viewBox="0 0 1500 1500"><rect width="1500" height="1500" fill="#000000"></rect><g transform="matrix(0.6666666666666666,0,0,0.6666666666666666,250.1076266666667,607.1517600000002)"><svg viewBox="0 0 375 107" data-background-color="#000000" preserveAspectRatio="xMidYMid meet" height="428" width="1500" xmlns="http://www.w3.org/2000/svg" xmlns:xlink="http://www.w3.org/1999/xlink"><g id="tight-bounds" transform="matrix(1,0,0,1,-0.04012000000000171,0.06808999999998377)"><svg viewBox="0 0 375.07953 106.86382" height="106.86382" width="375.07953"><rect width="375.0804800000001" height="106.86382" fill="url(#72cbaad1-1238-4c20-a445-6d449134774f)" mask="url(#d244bb9a-35c5-411d-af12-d47854a577b0)" data-fill-palette-color="tertiary"></rect><g><svg></svg></g><g><svg viewBox="0 0 375.07953 106.86382" height="106.86382" width="375.07953"><g transform="matrix(1,0,0,1,-10.22024,-72.94274999999999)"><path d="M10.22 174.257v-101.314h375.08v101.314h-26.836v-3.379h23.457v-94.556h-368.322v94.556l208.989 0 0 3.379z" fill="url(#72cbaad1-1238-4c20-a445-6d449134774f)" fill-rule="nonzero" stroke="none" stroke-width="1" stroke-linecap="butt" stroke-linejoin="miter" stroke-miterlimit="10" stroke-dasharray="" stroke-dashoffset="0" font-family="none" font-weight="none" font-size="none" text-anchor="none" style="mix-blend-mode: normal" data-fill-palette-color="tertiary"></path><g></g></g><g transform="matrix(1,0,0,1,29.33176499999999,34.69639063899983)"><svg viewBox="0 0 316.416 37.471038722000344" height="37.471038722000344" width="316.416"><g><svg viewBox="0 0 316.416 37.471038722000344" height="37.471038722000344" width="316.416"><g><svg viewBox="0 0 316.416 37.471038722000344" height="37.471038722000344" width="316.416"><g><svg viewBox="0 0 316.416 37.471038722000344" height="37.471038722000344" width="316.416"><g id="textblocktransform"><svg viewBox="0 0 316.416 37.471038722000344" height="37.471038722000344" width="316.416" id="textblock"><g><svg viewBox="0 0 316.416 37.471038722000344" height="37.471038722000344" width="316.416"><g transform="matrix(1,0,0,1,0,0)"><svg width="316.416" viewBox="1.63 -33.48 287.91 34.11" height="37.471038722000344" data-palette-color="url(#4fd81b3a-4060-49e7-881e-87bd808bdb1e)"></svg></g></svg></g></svg></g></svg></g></svg></g></svg></g></svg></g></svg></g><defs></defs><mask id="e45b02ea-abc6-4cde-b577-33606fb49308"><g id="SvgjsG2223"><svg viewBox="0 0 375.07953 106.86382" height="106.86382" width="375.07953"><g><svg></svg></g><g><svg viewBox="0 0 375.07953 106.86382" height="106.86382" width="375.07953"><g transform="matrix(1,0,0,1,-10.22024,-72.94274999999999)"><path d="M10.22 174.257v-101.314h375.08v101.314h-26.836v-3.379h23.457v-94.556h-368.322v94.556l208.989 0 0 3.379z" fill="black" fill-rule="nonzero" stroke="none" stroke-width="1" stroke-linecap="butt" stroke-linejoin="miter" stroke-miterlimit="10" stroke-dasharray="" stroke-dashoffset="0" font-family="none" font-weight="none" font-size="none" text-anchor="none" style="mix-blend-mode: normal"></path><g><path d="M232.726 164.518v0h1.479c0 0.541 0 1.117 0 1.731 0 0.613 0 1.201 0 1.764 0 0.561 0 1.042 0 1.443 0 0.401 0 0.664 0 0.787v0c0.345-0.454 0.749-0.832 1.213-1.135 0.466-0.303 1.01-0.454 1.631-0.454v0c0.496 0 0.937 0.157 1.322 0.472 0.383 0.315 0.683 0.75 0.899 1.307 0.218 0.557 0.327 1.195 0.327 1.916v0c0 0.841-0.148 1.574-0.445 2.199-0.294 0.625-0.709 1.11-1.244 1.455-0.535 0.345-1.166 0.517-1.894 0.518v0c-0.597 0-1.159-0.075-1.685-0.224-0.526-0.151-1.024-0.299-1.491-0.442v0c0-0.202 0-0.499 0-0.892 0-0.393 0-0.846 0-1.359 0-0.512 0-1.045 0-1.597 0-0.551 0-1.088 0-1.613 0-0.524 0-0.997 0-1.419 0-0.422 0-0.75 0-0.986v0c0-0.355-0.001-0.748-0.004-1.18-0.002-0.434-0.011-0.855-0.027-1.265-0.014-0.409-0.041-0.751-0.081-1.026zM234.205 172.016v0 2.953c0.363 0.153 0.677 0.259 0.941 0.317 0.264 0.061 0.554 0.091 0.868 0.091v0c0.656 0 1.194-0.254 1.616-0.762 0.424-0.506 0.635-1.176 0.635-2.009v0c0-0.823-0.143-1.471-0.429-1.946-0.288-0.476-0.699-0.714-1.232-0.714v0c-0.458 0-0.91 0.191-1.355 0.572-0.446 0.383-0.794 0.882-1.044 1.498zM241.996 168.803l2.808 7.092-0.627 1.661-2.475-6.133c-0.139-0.335-0.3-0.711-0.481-1.129-0.182-0.42-0.416-0.917-0.702-1.491v0zM246.909 171.423v0l-1.773 4.913c-0.341 0.94-0.675 1.661-1.001 2.164-0.327 0.502-0.667 0.846-1.02 1.031-0.351 0.184-0.736 0.275-1.155 0.276v0c-0.335 0-0.653-0.054-0.953-0.164-0.301-0.111-0.586-0.265-0.857-0.463v0l0.442-1.183c0.159 0.129 0.367 0.254 0.623 0.375 0.256 0.119 0.504 0.179 0.745 0.179v0c0.222 0 0.438-0.063 0.647-0.188 0.21-0.125 0.427-0.376 0.651-0.753 0.224-0.377 0.469-0.937 0.735-1.679v0c0.038-0.113 0.091-0.261 0.157-0.445 0.067-0.182 0.141-0.39 0.224-0.626v0c0.184-0.518 0.398-1.127 0.644-1.825 0.246-0.7 0.499-1.42 0.76-2.16 0.262-0.742 0.504-1.433 0.726-2.072v0h1.476c-0.256 0.571-0.468 1.064-0.635 1.479-0.167 0.418-0.313 0.798-0.436 1.141zM252.522 166.918v-1.365h8.532v1.365c-0.294-0.065-0.586-0.105-0.874-0.121-0.288-0.018-0.6-0.027-0.935-0.028v0h-1.773v6.354c0 0.728 0.009 1.372 0.027 1.93 0.016 0.561 0.056 0.988 0.121 1.283v0h-1.7c0.065-0.294 0.106-0.722 0.124-1.283 0.016-0.559 0.024-1.202 0.024-1.93v0-6.354h-1.737c-0.329 0-0.638 0.009-0.929 0.028-0.29 0.016-0.584 0.056-0.88 0.121zM264.046 172.052v4.284h-1.367v-4.541c0-0.724-0.04-1.34-0.121-1.849-0.081-0.506-0.163-0.887-0.248-1.143v0h1.331c0.038 0.103 0.077 0.245 0.115 0.426 0.036 0.184 0.072 0.368 0.106 0.554 0.034 0.188 0.058 0.341 0.072 0.46v0c0.361-0.512 0.767-0.906 1.22-1.18 0.454-0.272 0.848-0.408 1.183-0.409v0c0.413 0 0.744 0.117 0.992 0.351 0.248 0.234 0.428 0.538 0.539 0.911 0.111 0.375 0.166 0.78 0.166 1.213v0l-1.18 0.257c0-0.369-0.07-0.695-0.209-0.977-0.137-0.284-0.351-0.427-0.641-0.426v0c-0.208 0-0.443 0.103-0.705 0.308-0.264 0.204-0.512 0.464-0.744 0.781-0.23 0.319-0.399 0.645-0.509 0.98zM268.812 172.606v0c0-0.847 0.163-1.565 0.49-2.154 0.327-0.587 0.762-1.034 1.307-1.341 0.545-0.305 1.14-0.457 1.785-0.457v0c0.68 0 1.277 0.152 1.791 0.457 0.514 0.307 0.917 0.753 1.207 1.341 0.29 0.589 0.436 1.307 0.436 2.154v0c0 0.847-0.163 1.561-0.49 2.142-0.329 0.581-0.763 1.022-1.304 1.322-0.543 0.301-1.139 0.451-1.788 0.451v0c-0.676 0-1.272-0.15-1.789-0.451-0.516-0.301-0.92-0.741-1.21-1.322-0.29-0.581-0.436-1.295-0.436-2.142zM270.176 172.606v0c0 0.861 0.199 1.532 0.596 2.012 0.395 0.48 0.911 0.72 1.546 0.72v0c0.597 0 1.103-0.24 1.519-0.72 0.416-0.48 0.623-1.151 0.623-2.012v0c0-0.867-0.198-1.546-0.593-2.037-0.397-0.488-0.914-0.732-1.549-0.732v0c-0.595 0-1.1 0.244-1.516 0.732-0.418 0.49-0.626 1.169-0.626 2.037zM278.303 167.695v0c0-1.109 0.225-1.94 0.674-2.493 0.452-0.555 1.076-0.832 1.873-0.832v0c0.597 0 1.139 0.172 1.625 0.517v0l-0.333 1.18c-0.397-0.294-0.828-0.442-1.292-0.441v0c-0.383 0-0.676 0.138-0.877 0.414-0.202 0.274-0.303 0.727-0.303 1.359v0c0 0.157 0 0.416 0 0.774 0 0.359 0 0.766 0 1.223 0 0.456 0 0.91 0 1.361 0 0.45 0 0.849 0 1.198 0 0.351 0 0.595 0 0.732v0c0 0.714 0.017 1.404 0.052 2.07 0.034 0.664 0.091 1.19 0.169 1.579v0h-1.588c0-0.69 0-1.414 0-2.172 0-0.758 0-1.501 0-2.227 0-0.726 0-1.393 0-2 0-0.609 0-1.113 0-1.513 0-0.399 0-0.642 0-0.729zM281.664 170.058h-4.838v-1.071h4.838zM283.361 168.803v0h1.48c0 0.67 0 1.339 0 2.009 0 0.67 0 1.341 0 2.015v0c0 0.317 0.006 0.7 0.018 1.149 0.012 0.45 0.029 0.89 0.052 1.319 0.022 0.428 0.047 0.775 0.075 1.041v0h-1.513c0-0.355 0-0.772 0-1.249 0-0.476 0-0.952 0-1.428 0-0.476 0-0.889 0-1.238v0c0-0.718-0.006-1.404-0.018-2.057-0.012-0.652-0.043-1.172-0.094-1.561zM283.213 166.4v0c0-0.274 0.087-0.509 0.26-0.705 0.171-0.194 0.393-0.29 0.666-0.29v0c0.274 0 0.503 0.097 0.687 0.29 0.182 0.196 0.272 0.431 0.272 0.705v0c0 0.272-0.091 0.506-0.272 0.702-0.184 0.198-0.412 0.297-0.687 0.297v0c-0.272 0-0.494-0.099-0.666-0.297-0.173-0.196-0.26-0.43-0.26-0.702zM293.225 171.462v0 4.874h-1.368v-4.211c0-0.609-0.032-1.07-0.097-1.383-0.065-0.313-0.174-0.523-0.329-0.632-0.153-0.109-0.368-0.163-0.645-0.164v0c-0.359 0-0.714 0.142-1.065 0.427-0.349 0.282-0.622 0.645-0.82 1.089v0 4.874h-1.364v-4.541c0-0.724-0.042-1.34-0.127-1.849-0.083-0.506-0.163-0.887-0.242-1.143v0h1.328c0.054 0.151 0.101 0.336 0.139 0.553 0.04 0.216 0.073 0.412 0.097 0.59v0c0.454-0.522 0.877-0.868 1.271-1.038 0.393-0.169 0.802-0.254 1.225-0.254v0c0.484 0 0.877 0.125 1.18 0.376 0.303 0.252 0.515 0.541 0.638 0.865v0c0.462-0.496 0.898-0.827 1.307-0.993 0.409-0.165 0.809-0.248 1.198-0.248v0c0.748 0 1.268 0.24 1.559 0.72 0.29 0.48 0.436 1.176 0.435 2.088v0 4.874h-1.367v-4.063c0-0.635-0.032-1.12-0.097-1.455-0.063-0.335-0.171-0.564-0.327-0.687-0.155-0.123-0.371-0.185-0.647-0.185v0c-0.359 0-0.709 0.137-1.05 0.412-0.339 0.272-0.616 0.64-0.832 1.104zM306.74 176.336v0h-1.256c-0.069-0.171-0.143-0.392-0.223-0.662-0.083-0.268-0.143-0.54-0.182-0.814v0c-0.448 0.541-0.911 0.953-1.389 1.237-0.478 0.282-0.975 0.424-1.491 0.424v0c-1.575 0-2.363-1.059-2.363-3.177v0c0-0.034 0-0.157 0-0.369 0-0.212 0-0.452 0-0.72 0-0.268 0-0.508 0-0.72 0-0.212 0-0.335 0-0.369v0c0-0.468-0.008-0.868-0.025-1.202-0.014-0.333-0.055-0.72-0.124-1.161v0h1.513v4.099c0 0.837 0.093 1.446 0.279 1.828 0.184 0.381 0.509 0.572 0.977 0.571v0c0.29 0 0.6-0.109 0.929-0.326 0.327-0.22 0.628-0.49 0.904-0.811 0.274-0.319 0.476-0.628 0.605-0.929v0-2.069c0-0.325-0.003-0.608-0.009-0.851-0.004-0.24-0.017-0.477-0.039-0.711-0.022-0.234-0.055-0.501-0.1-0.801v0h1.516v4.208c0 0.714 0.041 1.343 0.124 1.888 0.085 0.545 0.203 1.024 0.354 1.437zM309.881 164.518v11.818h-1.368c0-0.595 0-1.229 0-1.903 0-0.672 0-1.342 0-2.012 0-0.67 0-1.301 0-1.894 0-0.593 0-1.111 0-1.555 0-0.444 0-0.772 0-0.983v0c0-0.793-0.005-1.491-0.015-2.094-0.01-0.603-0.041-1.062-0.094-1.377v0zM309.511 172.273l3.362-3.47h1.845l-4.054 3.664zM313.13 176.336l-3.434-4.063 0.775-0.811 4.468 4.874zM321.95 173.492l-0.99 2.844h-1.516c0.133-0.301 0.276-0.64 0.43-1.019 0.153-0.379 0.355-0.914 0.605-1.604v0l2.956-8.16h1.588l2.953 8.16c0.246 0.686 0.449 1.22 0.609 1.604 0.157 0.385 0.3 0.725 0.426 1.019v0h-1.513l-1.004-2.844zM322.349 172.349h3.746l-1.885-5.356zM330.82 175.522v0c0-0.274 0.099-0.509 0.297-0.705 0.198-0.194 0.432-0.29 0.702-0.29v0c0.276 0 0.511 0.097 0.705 0.29 0.194 0.196 0.29 0.431 0.29 0.705v0c0 0.272-0.097 0.506-0.29 0.702-0.194 0.198-0.429 0.297-0.705 0.297v0c-0.27 0-0.504-0.099-0.702-0.297-0.198-0.196-0.297-0.43-0.297-0.702zM342.641 171.054v0c0-0.91-0.132-1.692-0.396-2.348-0.264-0.656-0.631-1.16-1.101-1.513-0.47-0.355-1.018-0.532-1.643-0.533v0c-0.621 0-1.171 0.169-1.649 0.509-0.476 0.341-0.85 0.824-1.123 1.449-0.27 0.625-0.405 1.364-0.405 2.215v0c0 0.896 0.132 1.674 0.396 2.335 0.262 0.66 0.631 1.168 1.108 1.525 0.476 0.357 1.034 0.536 1.673 0.536v0c0.605 0 1.145-0.166 1.619-0.499 0.472-0.333 0.843-0.811 1.113-1.434 0.272-0.621 0.408-1.369 0.408-2.242zM344.082 170.869v0c0 0.887-0.131 1.68-0.394 2.378-0.26 0.7-0.611 1.293-1.053 1.779-0.44 0.484-0.937 0.854-1.491 1.111-0.555 0.256-1.128 0.384-1.719 0.384v0c-0.595 0-1.165-0.121-1.709-0.363-0.543-0.24-1.028-0.594-1.456-1.062-0.426-0.468-0.761-1.043-1.007-1.725-0.246-0.682-0.369-1.466-0.369-2.354v0c0-0.885 0.13-1.677 0.39-2.375 0.262-0.696 0.616-1.288 1.062-1.776 0.446-0.488 0.948-0.86 1.507-1.116 0.559-0.254 1.136-0.381 1.73-0.381v0c0.587 0 1.15 0.12 1.689 0.36 0.541 0.242 1.022 0.597 1.443 1.065 0.424 0.468 0.759 1.043 1.007 1.724 0.246 0.682 0.369 1.465 0.37 2.351zM346.333 175.522v0c0-0.274 0.099-0.509 0.296-0.705 0.198-0.194 0.432-0.29 0.702-0.29v0c0.276 0 0.511 0.097 0.705 0.29 0.194 0.196 0.29 0.431 0.29 0.705v0c0 0.272-0.097 0.506-0.29 0.702-0.194 0.198-0.429 0.297-0.705 0.297v0c-0.27 0-0.504-0.099-0.702-0.297-0.198-0.196-0.297-0.43-0.296-0.702z" fill="black" fill-rule="nonzero" stroke="none" stroke-width="1" stroke-linecap="butt" stroke-linejoin="miter" stroke-miterlimit="10" stroke-dasharray="" stroke-dashoffset="0" font-family="none" font-weight="none" font-size="none" text-anchor="none" style="mix-blend-mode: normal" id="SvgjsPath2222"></path></g></g><g transform="matrix(1,0,0,1,29.33176499999999,34.69639063899983)"><svg viewBox="0 0 316.416 37.471038722000344" height="37.471038722000344" width="316.416"><g><svg viewBox="0 0 316.416 37.471038722000344" height="37.471038722000344" width="316.416"><g><svg viewBox="0 0 316.416 37.471038722000344" height="37.471038722000344" width="316.416"><g><svg viewBox="0 0 316.416 37.471038722000344" height="37.471038722000344" width="316.416"><g id="SvgjsG2221"><svg viewBox="0 0 316.416 37.471038722000344" height="37.471038722000344" width="316.416" id="SvgjsSvg2220"><g><svg viewBox="0 0 316.416 37.471038722000344" height="37.471038722000344" width="316.416"><g transform="matrix(1,0,0,1,0,0)"><svg width="316.416" viewBox="1.63 -33.48 287.91 34.11" height="37.471038722000344" data-palette-color="url(#4fd81b3a-4060-49e7-881e-87bd808bdb1e)"><path d="M14.83 0L8.22 0 1.63-31.95 5.88-31.95 10.53-8.08 11.4-3.48 11.85-3.48 12.7-8.08 17.38-31.13 23.5-31.13 28.18-8.08 29.03-3.48 29.48-3.48 30.38-8.08 35.02-31.95 39.23-31.95 32.65 0 26.1 0 22.4-18.38 20.65-27.7 20.25-27.7 18.48-18.38 14.83 0ZM53.87 0.63L53.87 0.63Q48.62 0.63 45.91-2.21 43.2-5.05 43.2-10.38L43.2-10.38 43.2-14.1Q43.2-19.4 45.92-22.23 48.65-25.05 53.87-25.05L53.87-25.05Q59.12-25.05 61.84-22.23 64.55-19.4 64.55-14.1L64.55-14.1 64.55-10.38Q64.55-5.05 61.84-2.21 59.12 0.63 53.87 0.63ZM53.87-2.68L53.87-2.68Q57.12-2.68 58.81-4.6 60.5-6.53 60.5-10.15L60.5-10.15 60.5-14.33Q60.5-17.93 58.81-19.84 57.12-21.75 53.87-21.75L53.87-21.75Q50.65-21.75 48.95-19.84 47.25-17.93 47.25-14.33L47.25-14.33 47.25-10.15Q47.25-6.53 48.95-4.6 50.65-2.68 53.87-2.68ZM74.02-14.93L74.02-14.93 73.09-18.05 74.09-18.1Q74.9-21.2 76.84-22.99 78.8-24.78 82.02-24.78L82.02-24.78Q82.82-24.78 83.46-24.65 84.09-24.53 84.59-24.35L84.59-24.35 84.84-20.43Q84.22-20.63 83.46-20.75 82.7-20.88 81.77-20.88L81.77-20.88Q79.02-20.88 76.98-19.35 74.95-17.82 74.02-14.93ZM74.22 0L70.17 0 70.17-24.4 74.12-24.4 73.92-17.2 74.22-16.9 74.22 0ZM92.97 0L88.94 0 88.94-33.13 92.97-33.13 92.97 0ZM107.74 0.53L107.74 0.53Q103.34 0.53 101.04-2.2 98.74-4.93 98.74-10.15L98.74-10.15 98.74-14.18Q98.74-19.43 101.07-22.19 103.39-24.95 107.92-24.95L107.92-24.95Q110.17-24.95 111.82-24.19 113.47-23.43 114.49-22.05 115.52-20.68 115.87-18.8L115.87-18.8 117.19-18.8 115.99-15.08Q115.92-17.23 115.03-18.69 114.14-20.15 112.63-20.9 111.12-21.65 109.17-21.65L109.17-21.65Q106.07-21.65 104.43-19.85 102.79-18.05 102.79-14.55L102.79-14.55 102.79-9.9Q102.79-6.45 104.43-4.65 106.07-2.85 109.17-2.85L109.17-2.85Q111.02-2.85 112.44-3.56 113.87-4.28 114.8-5.54 115.74-6.8 116.09-8.4L116.09-8.4 117.09-5.5 115.89-5.5Q115.54-3.85 114.55-2.48 113.57-1.1 111.9-0.29 110.24 0.53 107.74 0.53ZM119.94 0L115.89 0 116.07-5.9 115.99-7.2 115.99-17.4 116.02-18.25 115.92-25.18 115.92-33.13 119.94-33.13 119.94 0ZM138.76 0L134.56 0 144.56-31.95 151.11-31.95 161.14 0 156.94 0 148.16-29.15 147.53-29.15 138.76 0ZM155.11-9.43L140.56-9.43 140.56-12.88 155.11-12.88 155.11-9.43ZM169.51-14.93L169.51-14.93 168.58-18.05 169.58-18.1Q170.38-21.2 172.33-22.99 174.28-24.78 177.51-24.78L177.51-24.78Q178.31-24.78 178.95-24.65 179.58-24.53 180.08-24.35L180.08-24.35 180.33-20.43Q179.71-20.63 178.95-20.75 178.18-20.88 177.26-20.88L177.26-20.88Q174.51-20.88 172.47-19.35 170.43-17.82 169.51-14.93ZM169.71 0L165.66 0 165.66-24.4 169.61-24.4 169.41-17.2 169.71-16.9 169.71 0ZM193.18 0.5L193.18 0.5Q190.36 0.5 188.63-0.35 186.91-1.2 186.13-2.93 185.36-4.65 185.36-7.23L185.36-7.23 185.36-22.63 189.36-22.63 189.36-7.7Q189.36-5.3 190.46-4.16 191.56-3.03 194.16-3.03L194.16-3.03Q195.63-3.03 196.99-3.35 198.36-3.68 199.56-4.28L199.56-4.28 199.18-0.8Q198.01-0.2 196.43 0.15 194.86 0.5 193.18 0.5ZM198.93-20.8L181.36-20.8 181.36-24.05 199.31-24.05 198.93-20.8ZM189.26-23.65L185.38-23.65 185.36-30.5 189.43-31.03 189.26-23.65ZM208.2 0L204.15 0 204.15-24.4 208.2-24.4 208.2 0ZM206.18-28.4L206.18-28.4Q204.93-28.4 204.32-29.06 203.7-29.73 203.7-30.88L203.7-30.88 203.7-31Q203.7-32.18 204.32-32.83 204.93-33.48 206.18-33.48L206.18-33.48Q207.43-33.48 208.05-32.83 208.68-32.18 208.68-31L208.68-31 208.68-30.88Q208.68-29.7 208.05-29.05 207.43-28.4 206.18-28.4ZM224.3 0.55L224.3 0.55Q219.05 0.55 216.49-2.29 213.93-5.13 213.93-10.33L213.93-10.33 213.93-14.13Q213.93-19.35 216.5-22.16 219.08-24.98 224.3-24.98L224.3-24.98Q225.85-24.98 227.13-24.69 228.4-24.4 229.41-23.94 230.43-23.48 231.13-22.98L231.13-22.98 231.48-19.45Q230.3-20.35 228.69-20.98 227.08-21.6 224.9-21.6L224.9-21.6Q221.4-21.6 219.69-19.66 217.98-17.73 217.98-14.03L217.98-14.03 217.98-10.43Q217.98-6.8 219.69-4.85 221.4-2.9 224.9-2.9L224.9-2.9Q227.15-2.9 228.79-3.53 230.43-4.15 231.7-5.05L231.7-5.05 231.33-1.48Q230.23-0.73 228.45-0.09 226.68 0.55 224.3 0.55ZM240.75 0L236.72 0 236.72-33.13 240.75-33.13 240.75 0ZM257.72 0.55L257.72 0.55Q252.15 0.55 249.32-2.18 246.5-4.9 246.5-9.98L246.5-9.98 246.5-14.33Q246.5-19.48 249.12-22.26 251.75-25.05 256.8-25.05L256.8-25.05Q260.19-25.05 262.47-23.79 264.75-22.53 265.9-20.2 267.05-17.88 267.05-14.65L267.05-14.65 267.05-13.75Q267.05-12.95 266.98-12.15 266.92-11.35 266.82-10.58L266.82-10.58 263.1-10.58Q263.15-11.78 263.16-12.85 263.17-13.93 263.17-14.83L263.17-14.83Q263.17-17.05 262.46-18.59 261.75-20.13 260.33-20.94 258.92-21.75 256.8-21.75L256.8-21.75Q253.65-21.75 252.07-19.93 250.5-18.1 250.5-14.7L250.5-14.7 250.5-12.38 250.52-11.88 250.52-9.55Q250.52-8.03 250.97-6.8 251.42-5.58 252.38-4.69 253.35-3.8 254.83-3.34 256.32-2.88 258.37-2.88L258.37-2.88Q260.75-2.88 262.8-3.5 264.85-4.13 266.65-5.2L266.65-5.2 266.27-1.7Q264.65-0.68 262.5-0.06 260.35 0.55 257.72 0.55ZM265.97-10.58L248.62-10.58 248.62-13.63 265.97-13.63 265.97-10.58ZM280.07 0.55L280.07 0.55Q277.12 0.55 274.92-0.09 272.72-0.73 271.27-1.48L271.27-1.48 270.89-5.23Q272.72-4.28 274.91-3.58 277.09-2.88 279.87-2.88L279.87-2.88Q282.69-2.88 284.12-3.78 285.54-4.67 285.54-6.45L285.54-6.45 285.54-6.73Q285.54-7.88 285.01-8.63 284.47-9.38 283.07-9.95 281.67-10.53 279.09-11.1L279.09-11.1Q276.02-11.78 274.24-12.69 272.47-13.6 271.71-14.95 270.94-16.3 270.94-18.25L270.94-18.25 270.94-18.48Q270.94-21.68 273.17-23.33 275.39-24.98 279.87-24.98L279.87-24.98Q282.74-24.98 284.86-24.33 286.97-23.68 288.32-22.88L288.32-22.88 288.69-19.45Q287.07-20.4 284.97-21.03 282.87-21.65 280.24-21.65L280.24-21.65Q278.34-21.65 277.17-21.26 275.99-20.88 275.47-20.16 274.94-19.45 274.94-18.45L274.94-18.45 274.94-18.25Q274.94-17.15 275.47-16.39 275.99-15.63 277.36-15.06 278.72-14.5 281.14-13.98L281.14-13.98Q284.27-13.35 286.11-12.48 287.94-11.6 288.74-10.26 289.54-8.93 289.54-6.83L289.54-6.83 289.54-6.4Q289.54-2.95 287.14-1.2 284.74 0.55 280.07 0.55Z" opacity="1" transform="matrix(1,0,0,1,0,0)" fill="white" class="wordmark-text-0" id="SvgjsPath2219"></path></svg></g></svg></g></svg></g></svg></g></svg></g></svg></g></svg></g></svg></g><defs><mask></mask></defs></svg><rect width="375.07953" height="106.86382" fill="black" stroke="none" visibility="hidden"></rect></g></mask><linearGradient x1="0" x2="1" y1="0.5" y2="0.5" id="4fd81b3a-4060-49e7-881e-87bd808bdb1e"><stop stop-color="#ffa62e" offset="0"></stop><stop stop-color="#f71b3d" offset="1"></stop></linearGradient><rect width="375.08000000000004" height="106.86382" fill="url(#4fd81b3a-4060-49e7-881e-87bd808bdb1e)" mask="url(#e45b02ea-abc6-4cde-b577-33606fb49308)" data-fill-palette-color="primary"></rect><mask id="8ca29752-7166-457c-87bb-f569d330213a"><g id="SvgjsG2232"><svg viewBox="0 0 375.07953 106.86382" height="106.86382" width="375.07953"><g><svg></svg></g><g><svg viewBox="0 0 375.07953 106.86382" height="106.86382" width="375.07953"><g transform="matrix(1,0,0,1,-10.22024,-72.94274999999999)"><path d="M10.22 174.257v-101.314h375.08v101.314h-26.836v-3.379h23.457v-94.556h-368.322v94.556l208.989 0 0 3.379z" fill="black" fill-rule="nonzero" stroke="none" stroke-width="1" stroke-linecap="butt" stroke-linejoin="miter" stroke-miterlimit="10" stroke-dasharray="" stroke-dashoffset="0" font-family="none" font-weight="none" font-size="none" text-anchor="none" style="mix-blend-mode: normal"></path><g><path d="M232.726 164.518v0h1.479c0 0.541 0 1.117 0 1.731 0 0.613 0 1.201 0 1.764 0 0.561 0 1.042 0 1.443 0 0.401 0 0.664 0 0.787v0c0.345-0.454 0.749-0.832 1.213-1.135 0.466-0.303 1.01-0.454 1.631-0.454v0c0.496 0 0.937 0.157 1.322 0.472 0.383 0.315 0.683 0.75 0.899 1.307 0.218 0.557 0.327 1.195 0.327 1.916v0c0 0.841-0.148 1.574-0.445 2.199-0.294 0.625-0.709 1.11-1.244 1.455-0.535 0.345-1.166 0.517-1.894 0.518v0c-0.597 0-1.159-0.075-1.685-0.224-0.526-0.151-1.024-0.299-1.491-0.442v0c0-0.202 0-0.499 0-0.892 0-0.393 0-0.846 0-1.359 0-0.512 0-1.045 0-1.597 0-0.551 0-1.088 0-1.613 0-0.524 0-0.997 0-1.419 0-0.422 0-0.75 0-0.986v0c0-0.355-0.001-0.748-0.004-1.18-0.002-0.434-0.011-0.855-0.027-1.265-0.014-0.409-0.041-0.751-0.081-1.026zM234.205 172.016v0 2.953c0.363 0.153 0.677 0.259 0.941 0.317 0.264 0.061 0.554 0.091 0.868 0.091v0c0.656 0 1.194-0.254 1.616-0.762 0.424-0.506 0.635-1.176 0.635-2.009v0c0-0.823-0.143-1.471-0.429-1.946-0.288-0.476-0.699-0.714-1.232-0.714v0c-0.458 0-0.91 0.191-1.355 0.572-0.446 0.383-0.794 0.882-1.044 1.498zM241.996 168.803l2.808 7.092-0.627 1.661-2.475-6.133c-0.139-0.335-0.3-0.711-0.481-1.129-0.182-0.42-0.416-0.917-0.702-1.491v0zM246.909 171.423v0l-1.773 4.913c-0.341 0.94-0.675 1.661-1.001 2.164-0.327 0.502-0.667 0.846-1.02 1.031-0.351 0.184-0.736 0.275-1.155 0.276v0c-0.335 0-0.653-0.054-0.953-0.164-0.301-0.111-0.586-0.265-0.857-0.463v0l0.442-1.183c0.159 0.129 0.367 0.254 0.623 0.375 0.256 0.119 0.504 0.179 0.745 0.179v0c0.222 0 0.438-0.063 0.647-0.188 0.21-0.125 0.427-0.376 0.651-0.753 0.224-0.377 0.469-0.937 0.735-1.679v0c0.038-0.113 0.091-0.261 0.157-0.445 0.067-0.182 0.141-0.39 0.224-0.626v0c0.184-0.518 0.398-1.127 0.644-1.825 0.246-0.7 0.499-1.42 0.76-2.16 0.262-0.742 0.504-1.433 0.726-2.072v0h1.476c-0.256 0.571-0.468 1.064-0.635 1.479-0.167 0.418-0.313 0.798-0.436 1.141zM252.522 166.918v-1.365h8.532v1.365c-0.294-0.065-0.586-0.105-0.874-0.121-0.288-0.018-0.6-0.027-0.935-0.028v0h-1.773v6.354c0 0.728 0.009 1.372 0.027 1.93 0.016 0.561 0.056 0.988 0.121 1.283v0h-1.7c0.065-0.294 0.106-0.722 0.124-1.283 0.016-0.559 0.024-1.202 0.024-1.93v0-6.354h-1.737c-0.329 0-0.638 0.009-0.929 0.028-0.29 0.016-0.584 0.056-0.88 0.121zM264.046 172.052v4.284h-1.367v-4.541c0-0.724-0.04-1.34-0.121-1.849-0.081-0.506-0.163-0.887-0.248-1.143v0h1.331c0.038 0.103 0.077 0.245 0.115 0.426 0.036 0.184 0.072 0.368 0.106 0.554 0.034 0.188 0.058 0.341 0.072 0.46v0c0.361-0.512 0.767-0.906 1.22-1.18 0.454-0.272 0.848-0.408 1.183-0.409v0c0.413 0 0.744 0.117 0.992 0.351 0.248 0.234 0.428 0.538 0.539 0.911 0.111 0.375 0.166 0.78 0.166 1.213v0l-1.18 0.257c0-0.369-0.07-0.695-0.209-0.977-0.137-0.284-0.351-0.427-0.641-0.426v0c-0.208 0-0.443 0.103-0.705 0.308-0.264 0.204-0.512 0.464-0.744 0.781-0.23 0.319-0.399 0.645-0.509 0.98zM268.812 172.606v0c0-0.847 0.163-1.565 0.49-2.154 0.327-0.587 0.762-1.034 1.307-1.341 0.545-0.305 1.14-0.457 1.785-0.457v0c0.68 0 1.277 0.152 1.791 0.457 0.514 0.307 0.917 0.753 1.207 1.341 0.29 0.589 0.436 1.307 0.436 2.154v0c0 0.847-0.163 1.561-0.49 2.142-0.329 0.581-0.763 1.022-1.304 1.322-0.543 0.301-1.139 0.451-1.788 0.451v0c-0.676 0-1.272-0.15-1.789-0.451-0.516-0.301-0.92-0.741-1.21-1.322-0.29-0.581-0.436-1.295-0.436-2.142zM270.176 172.606v0c0 0.861 0.199 1.532 0.596 2.012 0.395 0.48 0.911 0.72 1.546 0.72v0c0.597 0 1.103-0.24 1.519-0.72 0.416-0.48 0.623-1.151 0.623-2.012v0c0-0.867-0.198-1.546-0.593-2.037-0.397-0.488-0.914-0.732-1.549-0.732v0c-0.595 0-1.1 0.244-1.516 0.732-0.418 0.49-0.626 1.169-0.626 2.037zM278.303 167.695v0c0-1.109 0.225-1.94 0.674-2.493 0.452-0.555 1.076-0.832 1.873-0.832v0c0.597 0 1.139 0.172 1.625 0.517v0l-0.333 1.18c-0.397-0.294-0.828-0.442-1.292-0.441v0c-0.383 0-0.676 0.138-0.877 0.414-0.202 0.274-0.303 0.727-0.303 1.359v0c0 0.157 0 0.416 0 0.774 0 0.359 0 0.766 0 1.223 0 0.456 0 0.91 0 1.361 0 0.45 0 0.849 0 1.198 0 0.351 0 0.595 0 0.732v0c0 0.714 0.017 1.404 0.052 2.07 0.034 0.664 0.091 1.19 0.169 1.579v0h-1.588c0-0.69 0-1.414 0-2.172 0-0.758 0-1.501 0-2.227 0-0.726 0-1.393 0-2 0-0.609 0-1.113 0-1.513 0-0.399 0-0.642 0-0.729zM281.664 170.058h-4.838v-1.071h4.838zM283.361 168.803v0h1.48c0 0.67 0 1.339 0 2.009 0 0.67 0 1.341 0 2.015v0c0 0.317 0.006 0.7 0.018 1.149 0.012 0.45 0.029 0.89 0.052 1.319 0.022 0.428 0.047 0.775 0.075 1.041v0h-1.513c0-0.355 0-0.772 0-1.249 0-0.476 0-0.952 0-1.428 0-0.476 0-0.889 0-1.238v0c0-0.718-0.006-1.404-0.018-2.057-0.012-0.652-0.043-1.172-0.094-1.561zM283.213 166.4v0c0-0.274 0.087-0.509 0.26-0.705 0.171-0.194 0.393-0.29 0.666-0.29v0c0.274 0 0.503 0.097 0.687 0.29 0.182 0.196 0.272 0.431 0.272 0.705v0c0 0.272-0.091 0.506-0.272 0.702-0.184 0.198-0.412 0.297-0.687 0.297v0c-0.272 0-0.494-0.099-0.666-0.297-0.173-0.196-0.26-0.43-0.26-0.702zM293.225 171.462v0 4.874h-1.368v-4.211c0-0.609-0.032-1.07-0.097-1.383-0.065-0.313-0.174-0.523-0.329-0.632-0.153-0.109-0.368-0.163-0.645-0.164v0c-0.359 0-0.714 0.142-1.065 0.427-0.349 0.282-0.622 0.645-0.82 1.089v0 4.874h-1.364v-4.541c0-0.724-0.042-1.34-0.127-1.849-0.083-0.506-0.163-0.887-0.242-1.143v0h1.328c0.054 0.151 0.101 0.336 0.139 0.553 0.04 0.216 0.073 0.412 0.097 0.59v0c0.454-0.522 0.877-0.868 1.271-1.038 0.393-0.169 0.802-0.254 1.225-0.254v0c0.484 0 0.877 0.125 1.18 0.376 0.303 0.252 0.515 0.541 0.638 0.865v0c0.462-0.496 0.898-0.827 1.307-0.993 0.409-0.165 0.809-0.248 1.198-0.248v0c0.748 0 1.268 0.24 1.559 0.72 0.29 0.48 0.436 1.176 0.435 2.088v0 4.874h-1.367v-4.063c0-0.635-0.032-1.12-0.097-1.455-0.063-0.335-0.171-0.564-0.327-0.687-0.155-0.123-0.371-0.185-0.647-0.185v0c-0.359 0-0.709 0.137-1.05 0.412-0.339 0.272-0.616 0.64-0.832 1.104zM306.74 176.336v0h-1.256c-0.069-0.171-0.143-0.392-0.223-0.662-0.083-0.268-0.143-0.54-0.182-0.814v0c-0.448 0.541-0.911 0.953-1.389 1.237-0.478 0.282-0.975 0.424-1.491 0.424v0c-1.575 0-2.363-1.059-2.363-3.177v0c0-0.034 0-0.157 0-0.369 0-0.212 0-0.452 0-0.72 0-0.268 0-0.508 0-0.72 0-0.212 0-0.335 0-0.369v0c0-0.468-0.008-0.868-0.025-1.202-0.014-0.333-0.055-0.72-0.124-1.161v0h1.513v4.099c0 0.837 0.093 1.446 0.279 1.828 0.184 0.381 0.509 0.572 0.977 0.571v0c0.29 0 0.6-0.109 0.929-0.326 0.327-0.22 0.628-0.49 0.904-0.811 0.274-0.319 0.476-0.628 0.605-0.929v0-2.069c0-0.325-0.003-0.608-0.009-0.851-0.004-0.24-0.017-0.477-0.039-0.711-0.022-0.234-0.055-0.501-0.1-0.801v0h1.516v4.208c0 0.714 0.041 1.343 0.124 1.888 0.085 0.545 0.203 1.024 0.354 1.437zM309.881 164.518v11.818h-1.368c0-0.595 0-1.229 0-1.903 0-0.672 0-1.342 0-2.012 0-0.67 0-1.301 0-1.894 0-0.593 0-1.111 0-1.555 0-0.444 0-0.772 0-0.983v0c0-0.793-0.005-1.491-0.015-2.094-0.01-0.603-0.041-1.062-0.094-1.377v0zM309.511 172.273l3.362-3.47h1.845l-4.054 3.664zM313.13 176.336l-3.434-4.063 0.775-0.811 4.468 4.874zM321.95 173.492l-0.99 2.844h-1.516c0.133-0.301 0.276-0.64 0.43-1.019 0.153-0.379 0.355-0.914 0.605-1.604v0l2.956-8.16h1.588l2.953 8.16c0.246 0.686 0.449 1.22 0.609 1.604 0.157 0.385 0.3 0.725 0.426 1.019v0h-1.513l-1.004-2.844zM322.349 172.349h3.746l-1.885-5.356zM330.82 175.522v0c0-0.274 0.099-0.509 0.297-0.705 0.198-0.194 0.432-0.29 0.702-0.29v0c0.276 0 0.511 0.097 0.705 0.29 0.194 0.196 0.29 0.431 0.29 0.705v0c0 0.272-0.097 0.506-0.29 0.702-0.194 0.198-0.429 0.297-0.705 0.297v0c-0.27 0-0.504-0.099-0.702-0.297-0.198-0.196-0.297-0.43-0.297-0.702zM342.641 171.054v0c0-0.91-0.132-1.692-0.396-2.348-0.264-0.656-0.631-1.16-1.101-1.513-0.47-0.355-1.018-0.532-1.643-0.533v0c-0.621 0-1.171 0.169-1.649 0.509-0.476 0.341-0.85 0.824-1.123 1.449-0.27 0.625-0.405 1.364-0.405 2.215v0c0 0.896 0.132 1.674 0.396 2.335 0.262 0.66 0.631 1.168 1.108 1.525 0.476 0.357 1.034 0.536 1.673 0.536v0c0.605 0 1.145-0.166 1.619-0.499 0.472-0.333 0.843-0.811 1.113-1.434 0.272-0.621 0.408-1.369 0.408-2.242zM344.082 170.869v0c0 0.887-0.131 1.68-0.394 2.378-0.26 0.7-0.611 1.293-1.053 1.779-0.44 0.484-0.937 0.854-1.491 1.111-0.555 0.256-1.128 0.384-1.719 0.384v0c-0.595 0-1.165-0.121-1.709-0.363-0.543-0.24-1.028-0.594-1.456-1.062-0.426-0.468-0.761-1.043-1.007-1.725-0.246-0.682-0.369-1.466-0.369-2.354v0c0-0.885 0.13-1.677 0.39-2.375 0.262-0.696 0.616-1.288 1.062-1.776 0.446-0.488 0.948-0.86 1.507-1.116 0.559-0.254 1.136-0.381 1.73-0.381v0c0.587 0 1.15 0.12 1.689 0.36 0.541 0.242 1.022 0.597 1.443 1.065 0.424 0.468 0.759 1.043 1.007 1.724 0.246 0.682 0.369 1.465 0.37 2.351zM346.333 175.522v0c0-0.274 0.099-0.509 0.296-0.705 0.198-0.194 0.432-0.29 0.702-0.29v0c0.276 0 0.511 0.097 0.705 0.29 0.194 0.196 0.29 0.431 0.29 0.705v0c0 0.272-0.097 0.506-0.29 0.702-0.194 0.198-0.429 0.297-0.705 0.297v0c-0.27 0-0.504-0.099-0.702-0.297-0.198-0.196-0.297-0.43-0.296-0.702z" fill="white" fill-rule="nonzero" stroke="none" stroke-width="1" stroke-linecap="butt" stroke-linejoin="miter" stroke-miterlimit="10" stroke-dasharray="" stroke-dashoffset="0" font-family="none" font-weight="none" font-size="none" text-anchor="none" style="mix-blend-mode: normal" id="SvgjsPath2231"></path></g></g><g transform="matrix(1,0,0,1,29.33176499999999,34.69639063899983)"><svg viewBox="0 0 316.416 37.471038722000344" height="37.471038722000344" width="316.416"><g><svg viewBox="0 0 316.416 37.471038722000344" height="37.471038722000344" width="316.416"><g><svg viewBox="0 0 316.416 37.471038722000344" height="37.471038722000344" width="316.416"><g><svg viewBox="0 0 316.416 37.471038722000344" height="37.471038722000344" width="316.416"><g id="SvgjsG2230"><svg viewBox="0 0 316.416 37.471038722000344" height="37.471038722000344" width="316.416" id="SvgjsSvg2229"><g><svg viewBox="0 0 316.416 37.471038722000344" height="37.471038722000344" width="316.416"><g transform="matrix(1,0,0,1,0,0)"><svg width="316.416" viewBox="1.63 -33.48 287.91 34.11" height="37.471038722000344" data-palette-color="url(#4fd81b3a-4060-49e7-881e-87bd808bdb1e)"></svg></g></svg></g></svg></g></svg></g></svg></g></svg></g></svg></g></svg></g><defs><mask></mask></defs><mask><g id="SvgjsG2228"><svg viewBox="0 0 375.07953 106.86382" height="106.86382" width="375.07953"><g><svg></svg></g><g><svg viewBox="0 0 375.07953 106.86382" height="106.86382" width="375.07953"><g transform="matrix(1,0,0,1,-10.22024,-72.94274999999999)"><path d="M10.22 174.257v-101.314h375.08v101.314h-26.836v-3.379h23.457v-94.556h-368.322v94.556l208.989 0 0 3.379z" fill="black" fill-rule="nonzero" stroke="none" stroke-width="1" stroke-linecap="butt" stroke-linejoin="miter" stroke-miterlimit="10" stroke-dasharray="" stroke-dashoffset="0" font-family="none" font-weight="none" font-size="none" text-anchor="none" style="mix-blend-mode: normal"></path><g><path d="M232.726 164.518v0h1.479c0 0.541 0 1.117 0 1.731 0 0.613 0 1.201 0 1.764 0 0.561 0 1.042 0 1.443 0 0.401 0 0.664 0 0.787v0c0.345-0.454 0.749-0.832 1.213-1.135 0.466-0.303 1.01-0.454 1.631-0.454v0c0.496 0 0.937 0.157 1.322 0.472 0.383 0.315 0.683 0.75 0.899 1.307 0.218 0.557 0.327 1.195 0.327 1.916v0c0 0.841-0.148 1.574-0.445 2.199-0.294 0.625-0.709 1.11-1.244 1.455-0.535 0.345-1.166 0.517-1.894 0.518v0c-0.597 0-1.159-0.075-1.685-0.224-0.526-0.151-1.024-0.299-1.491-0.442v0c0-0.202 0-0.499 0-0.892 0-0.393 0-0.846 0-1.359 0-0.512 0-1.045 0-1.597 0-0.551 0-1.088 0-1.613 0-0.524 0-0.997 0-1.419 0-0.422 0-0.75 0-0.986v0c0-0.355-0.001-0.748-0.004-1.18-0.002-0.434-0.011-0.855-0.027-1.265-0.014-0.409-0.041-0.751-0.081-1.026zM234.205 172.016v0 2.953c0.363 0.153 0.677 0.259 0.941 0.317 0.264 0.061 0.554 0.091 0.868 0.091v0c0.656 0 1.194-0.254 1.616-0.762 0.424-0.506 0.635-1.176 0.635-2.009v0c0-0.823-0.143-1.471-0.429-1.946-0.288-0.476-0.699-0.714-1.232-0.714v0c-0.458 0-0.91 0.191-1.355 0.572-0.446 0.383-0.794 0.882-1.044 1.498zM241.996 168.803l2.808 7.092-0.627 1.661-2.475-6.133c-0.139-0.335-0.3-0.711-0.481-1.129-0.182-0.42-0.416-0.917-0.702-1.491v0zM246.909 171.423v0l-1.773 4.913c-0.341 0.94-0.675 1.661-1.001 2.164-0.327 0.502-0.667 0.846-1.02 1.031-0.351 0.184-0.736 0.275-1.155 0.276v0c-0.335 0-0.653-0.054-0.953-0.164-0.301-0.111-0.586-0.265-0.857-0.463v0l0.442-1.183c0.159 0.129 0.367 0.254 0.623 0.375 0.256 0.119 0.504 0.179 0.745 0.179v0c0.222 0 0.438-0.063 0.647-0.188 0.21-0.125 0.427-0.376 0.651-0.753 0.224-0.377 0.469-0.937 0.735-1.679v0c0.038-0.113 0.091-0.261 0.157-0.445 0.067-0.182 0.141-0.39 0.224-0.626v0c0.184-0.518 0.398-1.127 0.644-1.825 0.246-0.7 0.499-1.42 0.76-2.16 0.262-0.742 0.504-1.433 0.726-2.072v0h1.476c-0.256 0.571-0.468 1.064-0.635 1.479-0.167 0.418-0.313 0.798-0.436 1.141zM252.522 166.918v-1.365h8.532v1.365c-0.294-0.065-0.586-0.105-0.874-0.121-0.288-0.018-0.6-0.027-0.935-0.028v0h-1.773v6.354c0 0.728 0.009 1.372 0.027 1.93 0.016 0.561 0.056 0.988 0.121 1.283v0h-1.7c0.065-0.294 0.106-0.722 0.124-1.283 0.016-0.559 0.024-1.202 0.024-1.93v0-6.354h-1.737c-0.329 0-0.638 0.009-0.929 0.028-0.29 0.016-0.584 0.056-0.88 0.121zM264.046 172.052v4.284h-1.367v-4.541c0-0.724-0.04-1.34-0.121-1.849-0.081-0.506-0.163-0.887-0.248-1.143v0h1.331c0.038 0.103 0.077 0.245 0.115 0.426 0.036 0.184 0.072 0.368 0.106 0.554 0.034 0.188 0.058 0.341 0.072 0.46v0c0.361-0.512 0.767-0.906 1.22-1.18 0.454-0.272 0.848-0.408 1.183-0.409v0c0.413 0 0.744 0.117 0.992 0.351 0.248 0.234 0.428 0.538 0.539 0.911 0.111 0.375 0.166 0.78 0.166 1.213v0l-1.18 0.257c0-0.369-0.07-0.695-0.209-0.977-0.137-0.284-0.351-0.427-0.641-0.426v0c-0.208 0-0.443 0.103-0.705 0.308-0.264 0.204-0.512 0.464-0.744 0.781-0.23 0.319-0.399 0.645-0.509 0.98zM268.812 172.606v0c0-0.847 0.163-1.565 0.49-2.154 0.327-0.587 0.762-1.034 1.307-1.341 0.545-0.305 1.14-0.457 1.785-0.457v0c0.68 0 1.277 0.152 1.791 0.457 0.514 0.307 0.917 0.753 1.207 1.341 0.29 0.589 0.436 1.307 0.436 2.154v0c0 0.847-0.163 1.561-0.49 2.142-0.329 0.581-0.763 1.022-1.304 1.322-0.543 0.301-1.139 0.451-1.788 0.451v0c-0.676 0-1.272-0.15-1.789-0.451-0.516-0.301-0.92-0.741-1.21-1.322-0.29-0.581-0.436-1.295-0.436-2.142zM270.176 172.606v0c0 0.861 0.199 1.532 0.596 2.012 0.395 0.48 0.911 0.72 1.546 0.72v0c0.597 0 1.103-0.24 1.519-0.72 0.416-0.48 0.623-1.151 0.623-2.012v0c0-0.867-0.198-1.546-0.593-2.037-0.397-0.488-0.914-0.732-1.549-0.732v0c-0.595 0-1.1 0.244-1.516 0.732-0.418 0.49-0.626 1.169-0.626 2.037zM278.303 167.695v0c0-1.109 0.225-1.94 0.674-2.493 0.452-0.555 1.076-0.832 1.873-0.832v0c0.597 0 1.139 0.172 1.625 0.517v0l-0.333 1.18c-0.397-0.294-0.828-0.442-1.292-0.441v0c-0.383 0-0.676 0.138-0.877 0.414-0.202 0.274-0.303 0.727-0.303 1.359v0c0 0.157 0 0.416 0 0.774 0 0.359 0 0.766 0 1.223 0 0.456 0 0.91 0 1.361 0 0.45 0 0.849 0 1.198 0 0.351 0 0.595 0 0.732v0c0 0.714 0.017 1.404 0.052 2.07 0.034 0.664 0.091 1.19 0.169 1.579v0h-1.588c0-0.69 0-1.414 0-2.172 0-0.758 0-1.501 0-2.227 0-0.726 0-1.393 0-2 0-0.609 0-1.113 0-1.513 0-0.399 0-0.642 0-0.729zM281.664 170.058h-4.838v-1.071h4.838zM283.361 168.803v0h1.48c0 0.67 0 1.339 0 2.009 0 0.67 0 1.341 0 2.015v0c0 0.317 0.006 0.7 0.018 1.149 0.012 0.45 0.029 0.89 0.052 1.319 0.022 0.428 0.047 0.775 0.075 1.041v0h-1.513c0-0.355 0-0.772 0-1.249 0-0.476 0-0.952 0-1.428 0-0.476 0-0.889 0-1.238v0c0-0.718-0.006-1.404-0.018-2.057-0.012-0.652-0.043-1.172-0.094-1.561zM283.213 166.4v0c0-0.274 0.087-0.509 0.26-0.705 0.171-0.194 0.393-0.29 0.666-0.29v0c0.274 0 0.503 0.097 0.687 0.29 0.182 0.196 0.272 0.431 0.272 0.705v0c0 0.272-0.091 0.506-0.272 0.702-0.184 0.198-0.412 0.297-0.687 0.297v0c-0.272 0-0.494-0.099-0.666-0.297-0.173-0.196-0.26-0.43-0.26-0.702zM293.225 171.462v0 4.874h-1.368v-4.211c0-0.609-0.032-1.07-0.097-1.383-0.065-0.313-0.174-0.523-0.329-0.632-0.153-0.109-0.368-0.163-0.645-0.164v0c-0.359 0-0.714 0.142-1.065 0.427-0.349 0.282-0.622 0.645-0.82 1.089v0 4.874h-1.364v-4.541c0-0.724-0.042-1.34-0.127-1.849-0.083-0.506-0.163-0.887-0.242-1.143v0h1.328c0.054 0.151 0.101 0.336 0.139 0.553 0.04 0.216 0.073 0.412 0.097 0.59v0c0.454-0.522 0.877-0.868 1.271-1.038 0.393-0.169 0.802-0.254 1.225-0.254v0c0.484 0 0.877 0.125 1.18 0.376 0.303 0.252 0.515 0.541 0.638 0.865v0c0.462-0.496 0.898-0.827 1.307-0.993 0.409-0.165 0.809-0.248 1.198-0.248v0c0.748 0 1.268 0.24 1.559 0.72 0.29 0.48 0.436 1.176 0.435 2.088v0 4.874h-1.367v-4.063c0-0.635-0.032-1.12-0.097-1.455-0.063-0.335-0.171-0.564-0.327-0.687-0.155-0.123-0.371-0.185-0.647-0.185v0c-0.359 0-0.709 0.137-1.05 0.412-0.339 0.272-0.616 0.64-0.832 1.104zM306.74 176.336v0h-1.256c-0.069-0.171-0.143-0.392-0.223-0.662-0.083-0.268-0.143-0.54-0.182-0.814v0c-0.448 0.541-0.911 0.953-1.389 1.237-0.478 0.282-0.975 0.424-1.491 0.424v0c-1.575 0-2.363-1.059-2.363-3.177v0c0-0.034 0-0.157 0-0.369 0-0.212 0-0.452 0-0.72 0-0.268 0-0.508 0-0.72 0-0.212 0-0.335 0-0.369v0c0-0.468-0.008-0.868-0.025-1.202-0.014-0.333-0.055-0.72-0.124-1.161v0h1.513v4.099c0 0.837 0.093 1.446 0.279 1.828 0.184 0.381 0.509 0.572 0.977 0.571v0c0.29 0 0.6-0.109 0.929-0.326 0.327-0.22 0.628-0.49 0.904-0.811 0.274-0.319 0.476-0.628 0.605-0.929v0-2.069c0-0.325-0.003-0.608-0.009-0.851-0.004-0.24-0.017-0.477-0.039-0.711-0.022-0.234-0.055-0.501-0.1-0.801v0h1.516v4.208c0 0.714 0.041 1.343 0.124 1.888 0.085 0.545 0.203 1.024 0.354 1.437zM309.881 164.518v11.818h-1.368c0-0.595 0-1.229 0-1.903 0-0.672 0-1.342 0-2.012 0-0.67 0-1.301 0-1.894 0-0.593 0-1.111 0-1.555 0-0.444 0-0.772 0-0.983v0c0-0.793-0.005-1.491-0.015-2.094-0.01-0.603-0.041-1.062-0.094-1.377v0zM309.511 172.273l3.362-3.47h1.845l-4.054 3.664zM313.13 176.336l-3.434-4.063 0.775-0.811 4.468 4.874zM321.95 173.492l-0.99 2.844h-1.516c0.133-0.301 0.276-0.64 0.43-1.019 0.153-0.379 0.355-0.914 0.605-1.604v0l2.956-8.16h1.588l2.953 8.16c0.246 0.686 0.449 1.22 0.609 1.604 0.157 0.385 0.3 0.725 0.426 1.019v0h-1.513l-1.004-2.844zM322.349 172.349h3.746l-1.885-5.356zM330.82 175.522v0c0-0.274 0.099-0.509 0.297-0.705 0.198-0.194 0.432-0.29 0.702-0.29v0c0.276 0 0.511 0.097 0.705 0.29 0.194 0.196 0.29 0.431 0.29 0.705v0c0 0.272-0.097 0.506-0.29 0.702-0.194 0.198-0.429 0.297-0.705 0.297v0c-0.27 0-0.504-0.099-0.702-0.297-0.198-0.196-0.297-0.43-0.297-0.702zM342.641 171.054v0c0-0.91-0.132-1.692-0.396-2.348-0.264-0.656-0.631-1.16-1.101-1.513-0.47-0.355-1.018-0.532-1.643-0.533v0c-0.621 0-1.171 0.169-1.649 0.509-0.476 0.341-0.85 0.824-1.123 1.449-0.27 0.625-0.405 1.364-0.405 2.215v0c0 0.896 0.132 1.674 0.396 2.335 0.262 0.66 0.631 1.168 1.108 1.525 0.476 0.357 1.034 0.536 1.673 0.536v0c0.605 0 1.145-0.166 1.619-0.499 0.472-0.333 0.843-0.811 1.113-1.434 0.272-0.621 0.408-1.369 0.408-2.242zM344.082 170.869v0c0 0.887-0.131 1.68-0.394 2.378-0.26 0.7-0.611 1.293-1.053 1.779-0.44 0.484-0.937 0.854-1.491 1.111-0.555 0.256-1.128 0.384-1.719 0.384v0c-0.595 0-1.165-0.121-1.709-0.363-0.543-0.24-1.028-0.594-1.456-1.062-0.426-0.468-0.761-1.043-1.007-1.725-0.246-0.682-0.369-1.466-0.369-2.354v0c0-0.885 0.13-1.677 0.39-2.375 0.262-0.696 0.616-1.288 1.062-1.776 0.446-0.488 0.948-0.86 1.507-1.116 0.559-0.254 1.136-0.381 1.73-0.381v0c0.587 0 1.15 0.12 1.689 0.36 0.541 0.242 1.022 0.597 1.443 1.065 0.424 0.468 0.759 1.043 1.007 1.724 0.246 0.682 0.369 1.465 0.37 2.351zM346.333 175.522v0c0-0.274 0.099-0.509 0.296-0.705 0.198-0.194 0.432-0.29 0.702-0.29v0c0.276 0 0.511 0.097 0.705 0.29 0.194 0.196 0.29 0.431 0.29 0.705v0c0 0.272-0.097 0.506-0.29 0.702-0.194 0.198-0.429 0.297-0.705 0.297v0c-0.27 0-0.504-0.099-0.702-0.297-0.198-0.196-0.297-0.43-0.296-0.702z" fill="black" fill-rule="nonzero" stroke="none" stroke-width="1" stroke-linecap="butt" stroke-linejoin="miter" stroke-miterlimit="10" stroke-dasharray="" stroke-dashoffset="0" font-family="none" font-weight="none" font-size="none" text-anchor="none" style="mix-blend-mode: normal" id="SvgjsPath2227"></path></g></g><g transform="matrix(1,0,0,1,29.33176499999999,34.69639063899983)"><svg viewBox="0 0 316.416 37.471038722000344" height="37.471038722000344" width="316.416"><g><svg viewBox="0 0 316.416 37.471038722000344" height="37.471038722000344" width="316.416"><g><svg viewBox="0 0 316.416 37.471038722000344" height="37.471038722000344" width="316.416"><g><svg viewBox="0 0 316.416 37.471038722000344" height="37.471038722000344" width="316.416"><g id="SvgjsG2226"><svg viewBox="0 0 316.416 37.471038722000344" height="37.471038722000344" width="316.416" id="SvgjsSvg2225"><g><svg viewBox="0 0 316.416 37.471038722000344" height="37.471038722000344" width="316.416"><g transform="matrix(1,0,0,1,0,0)"><svg width="316.416" viewBox="1.63 -33.48 287.91 34.11" height="37.471038722000344" data-palette-color="url(#4fd81b3a-4060-49e7-881e-87bd808bdb1e)"><path d="M14.83 0L8.22 0 1.63-31.95 5.88-31.95 10.53-8.08 11.4-3.48 11.85-3.48 12.7-8.08 17.38-31.13 23.5-31.13 28.18-8.08 29.03-3.48 29.48-3.48 30.38-8.08 35.02-31.95 39.23-31.95 32.65 0 26.1 0 22.4-18.38 20.65-27.7 20.25-27.7 18.48-18.38 14.83 0ZM53.87 0.63L53.87 0.63Q48.62 0.63 45.91-2.21 43.2-5.05 43.2-10.38L43.2-10.38 43.2-14.1Q43.2-19.4 45.92-22.23 48.65-25.05 53.87-25.05L53.87-25.05Q59.12-25.05 61.84-22.23 64.55-19.4 64.55-14.1L64.55-14.1 64.55-10.38Q64.55-5.05 61.84-2.21 59.12 0.63 53.87 0.63ZM53.87-2.68L53.87-2.68Q57.12-2.68 58.81-4.6 60.5-6.53 60.5-10.15L60.5-10.15 60.5-14.33Q60.5-17.93 58.81-19.84 57.12-21.75 53.87-21.75L53.87-21.75Q50.65-21.75 48.95-19.84 47.25-17.93 47.25-14.33L47.25-14.33 47.25-10.15Q47.25-6.53 48.95-4.6 50.65-2.68 53.87-2.68ZM74.02-14.93L74.02-14.93 73.09-18.05 74.09-18.1Q74.9-21.2 76.84-22.99 78.8-24.78 82.02-24.78L82.02-24.78Q82.82-24.78 83.46-24.65 84.09-24.53 84.59-24.35L84.59-24.35 84.84-20.43Q84.22-20.63 83.46-20.75 82.7-20.88 81.77-20.88L81.77-20.88Q79.02-20.88 76.98-19.35 74.95-17.82 74.02-14.93ZM74.22 0L70.17 0 70.17-24.4 74.12-24.4 73.92-17.2 74.22-16.9 74.22 0ZM92.97 0L88.94 0 88.94-33.13 92.97-33.13 92.97 0ZM107.74 0.53L107.74 0.53Q103.34 0.53 101.04-2.2 98.74-4.93 98.74-10.15L98.74-10.15 98.74-14.18Q98.74-19.43 101.07-22.19 103.39-24.95 107.92-24.95L107.92-24.95Q110.17-24.95 111.82-24.19 113.47-23.43 114.49-22.05 115.52-20.68 115.87-18.8L115.87-18.8 117.19-18.8 115.99-15.08Q115.92-17.23 115.03-18.69 114.14-20.15 112.63-20.9 111.12-21.65 109.17-21.65L109.17-21.65Q106.07-21.65 104.43-19.85 102.79-18.05 102.79-14.55L102.79-14.55 102.79-9.9Q102.79-6.45 104.43-4.65 106.07-2.85 109.17-2.85L109.17-2.85Q111.02-2.85 112.44-3.56 113.87-4.28 114.8-5.54 115.74-6.8 116.09-8.4L116.09-8.4 117.09-5.5 115.89-5.5Q115.54-3.85 114.55-2.48 113.57-1.1 111.9-0.29 110.24 0.53 107.74 0.53ZM119.94 0L115.89 0 116.07-5.9 115.99-7.2 115.99-17.4 116.02-18.25 115.92-25.18 115.92-33.13 119.94-33.13 119.94 0ZM138.76 0L134.56 0 144.56-31.95 151.11-31.95 161.14 0 156.94 0 148.16-29.15 147.53-29.15 138.76 0ZM155.11-9.43L140.56-9.43 140.56-12.88 155.11-12.88 155.11-9.43ZM169.51-14.93L169.51-14.93 168.58-18.05 169.58-18.1Q170.38-21.2 172.33-22.99 174.28-24.78 177.51-24.78L177.51-24.78Q178.31-24.78 178.95-24.65 179.58-24.53 180.08-24.35L180.08-24.35 180.33-20.43Q179.71-20.63 178.95-20.75 178.18-20.88 177.26-20.88L177.26-20.88Q174.51-20.88 172.47-19.35 170.43-17.82 169.51-14.93ZM169.71 0L165.66 0 165.66-24.4 169.61-24.4 169.41-17.2 169.71-16.9 169.71 0ZM193.18 0.5L193.18 0.5Q190.36 0.5 188.63-0.35 186.91-1.2 186.13-2.93 185.36-4.65 185.36-7.23L185.36-7.23 185.36-22.63 189.36-22.63 189.36-7.7Q189.36-5.3 190.46-4.16 191.56-3.03 194.16-3.03L194.16-3.03Q195.63-3.03 196.99-3.35 198.36-3.68 199.56-4.28L199.56-4.28 199.18-0.8Q198.01-0.2 196.43 0.15 194.86 0.5 193.18 0.5ZM198.93-20.8L181.36-20.8 181.36-24.05 199.31-24.05 198.93-20.8ZM189.26-23.65L185.38-23.65 185.36-30.5 189.43-31.03 189.26-23.65ZM208.2 0L204.15 0 204.15-24.4 208.2-24.4 208.2 0ZM206.18-28.4L206.18-28.4Q204.93-28.4 204.32-29.06 203.7-29.73 203.7-30.88L203.7-30.88 203.7-31Q203.7-32.18 204.32-32.83 204.93-33.48 206.18-33.48L206.18-33.48Q207.43-33.48 208.05-32.83 208.68-32.18 208.68-31L208.68-31 208.68-30.88Q208.68-29.7 208.05-29.05 207.43-28.4 206.18-28.4ZM224.3 0.55L224.3 0.55Q219.05 0.55 216.49-2.29 213.93-5.13 213.93-10.33L213.93-10.33 213.93-14.13Q213.93-19.35 216.5-22.16 219.08-24.98 224.3-24.98L224.3-24.98Q225.85-24.98 227.13-24.69 228.4-24.4 229.41-23.94 230.43-23.48 231.13-22.98L231.13-22.98 231.48-19.45Q230.3-20.35 228.69-20.98 227.08-21.6 224.9-21.6L224.9-21.6Q221.4-21.6 219.69-19.66 217.98-17.73 217.98-14.03L217.98-14.03 217.98-10.43Q217.98-6.8 219.69-4.85 221.4-2.9 224.9-2.9L224.9-2.9Q227.15-2.9 228.79-3.53 230.43-4.15 231.7-5.05L231.7-5.05 231.33-1.48Q230.23-0.73 228.45-0.09 226.68 0.55 224.3 0.55ZM240.75 0L236.72 0 236.72-33.13 240.75-33.13 240.75 0ZM257.72 0.55L257.72 0.55Q252.15 0.55 249.32-2.18 246.5-4.9 246.5-9.98L246.5-9.98 246.5-14.33Q246.5-19.48 249.12-22.26 251.75-25.05 256.8-25.05L256.8-25.05Q260.19-25.05 262.47-23.79 264.75-22.53 265.9-20.2 267.05-17.88 267.05-14.65L267.05-14.65 267.05-13.75Q267.05-12.95 266.98-12.15 266.92-11.35 266.82-10.58L266.82-10.58 263.1-10.58Q263.15-11.78 263.16-12.85 263.17-13.93 263.17-14.83L263.17-14.83Q263.17-17.05 262.46-18.59 261.75-20.13 260.33-20.94 258.92-21.75 256.8-21.75L256.8-21.75Q253.65-21.75 252.07-19.93 250.5-18.1 250.5-14.7L250.5-14.7 250.5-12.38 250.52-11.88 250.52-9.55Q250.52-8.03 250.97-6.8 251.42-5.58 252.38-4.69 253.35-3.8 254.83-3.34 256.32-2.88 258.37-2.88L258.37-2.88Q260.75-2.88 262.8-3.5 264.85-4.13 266.65-5.2L266.65-5.2 266.27-1.7Q264.65-0.68 262.5-0.06 260.35 0.55 257.72 0.55ZM265.97-10.58L248.62-10.58 248.62-13.63 265.97-13.63 265.97-10.58ZM280.07 0.55L280.07 0.55Q277.12 0.55 274.92-0.09 272.72-0.73 271.27-1.48L271.27-1.48 270.89-5.23Q272.72-4.28 274.91-3.58 277.09-2.88 279.87-2.88L279.87-2.88Q282.69-2.88 284.12-3.78 285.54-4.67 285.54-6.45L285.54-6.45 285.54-6.73Q285.54-7.88 285.01-8.63 284.47-9.38 283.07-9.95 281.67-10.53 279.09-11.1L279.09-11.1Q276.02-11.78 274.24-12.69 272.47-13.6 271.71-14.95 270.94-16.3 270.94-18.25L270.94-18.25 270.94-18.48Q270.94-21.68 273.17-23.33 275.39-24.98 279.87-24.98L279.87-24.98Q282.74-24.98 284.86-24.33 286.97-23.68 288.32-22.88L288.32-22.88 288.69-19.45Q287.07-20.4 284.97-21.03 282.87-21.65 280.24-21.65L280.24-21.65Q278.34-21.65 277.17-21.26 275.99-20.88 275.47-20.16 274.94-19.45 274.94-18.45L274.94-18.45 274.94-18.25Q274.94-17.15 275.47-16.39 275.99-15.63 277.36-15.06 278.72-14.5 281.14-13.98L281.14-13.98Q284.27-13.35 286.11-12.48 287.94-11.6 288.74-10.26 289.54-8.93 289.54-6.83L289.54-6.83 289.54-6.4Q289.54-2.95 287.14-1.2 284.74 0.55 280.07 0.55Z" opacity="1" transform="matrix(1,0,0,1,0,0)" fill="black" class="wordmark-text-0" id="SvgjsPath2224"></path></svg></g></svg></g></svg></g></svg></g></svg></g></svg></g></svg></g></svg></g><defs><mask></mask></defs></svg><rect width="375.07953" height="106.86382" fill="black" stroke="none" visibility="hidden"></rect></g></mask></svg><rect width="375.07953" height="106.86382" fill="black" stroke="none" visibility="hidden"></rect></g></mask><linearGradient x1="0" x2="1" y1="0.5" y2="0.5" id="833df6f3-0b29-48b2-97f1-7aaec7dca708"><stop stop-color="#ffa62e" offset="0"></stop><stop stop-color="#f71b3d" offset="1"></stop></linearGradient><rect width="375.08024000000006" height="106.86382" fill="url(#833df6f3-0b29-48b2-97f1-7aaec7dca708)" mask="url(#8ca29752-7166-457c-87bb-f569d330213a)" data-fill-palette-color="secondary"></rect><mask id="d244bb9a-35c5-411d-af12-d47854a577b0"><g id="SvgjsG2267"><svg viewBox="0 0 375.07953 106.86382" height="106.86382" width="375.07953"><g><svg></svg></g><g><svg viewBox="0 0 375.07953 106.86382" height="106.86382" width="375.07953"><g transform="matrix(1,0,0,1,-10.22024,-72.94274999999999)"><path d="M10.22 174.257v-101.314h375.08v101.314h-26.836v-3.379h23.457v-94.556h-368.322v94.556l208.989 0 0 3.379z" fill="white" fill-rule="nonzero" stroke="none" stroke-width="1" stroke-linecap="butt" stroke-linejoin="miter" stroke-miterlimit="10" stroke-dasharray="" stroke-dashoffset="0" font-family="none" font-weight="none" font-size="none" text-anchor="none" style="mix-blend-mode: normal"></path><g></g></g><g transform="matrix(1,0,0,1,29.33176499999999,34.69639063899983)"><svg viewBox="0 0 316.416 37.471038722000344" height="37.471038722000344" width="316.416"><g><svg viewBox="0 0 316.416 37.471038722000344" height="37.471038722000344" width="316.416"><g><svg viewBox="0 0 316.416 37.471038722000344" height="37.471038722000344" width="316.416"><g><svg viewBox="0 0 316.416 37.471038722000344" height="37.471038722000344" width="316.416"><g id="SvgjsG2266"><svg viewBox="0 0 316.416 37.471038722000344" height="37.471038722000344" width="316.416" id="SvgjsSvg2265"><g><svg viewBox="0 0 316.416 37.471038722000344" height="37.471038722000344" width="316.416"><g transform="matrix(1,0,0,1,0,0)"><svg width="316.416" viewBox="1.63 -33.48 287.91 34.11" height="37.471038722000344" data-palette-color="url(#4fd81b3a-4060-49e7-881e-87bd808bdb1e)"></svg></g></svg></g></svg></g></svg></g></svg></g></svg></g></svg></g></svg></g><defs><mask></mask></defs><mask><g id="SvgjsG2264"><svg viewBox="0 0 375.07953 106.86382" height="106.86382" width="375.07953"><g><svg></svg></g><g><svg viewBox="0 0 375.07953 106.86382" height="106.86382" width="375.07953"><g transform="matrix(1,0,0,1,-10.22024,-72.94274999999999)"><path d="M10.22 174.257v-101.314h375.08v101.314h-26.836v-3.379h23.457v-94.556h-368.322v94.556l208.989 0 0 3.379z" fill="black" fill-rule="nonzero" stroke="none" stroke-width="1" stroke-linecap="butt" stroke-linejoin="miter" stroke-miterlimit="10" stroke-dasharray="" stroke-dashoffset="0" font-family="none" font-weight="none" font-size="none" text-anchor="none" style="mix-blend-mode: normal"></path><g><path d="M232.726 164.518v0h1.479c0 0.541 0 1.117 0 1.731 0 0.613 0 1.201 0 1.764 0 0.561 0 1.042 0 1.443 0 0.401 0 0.664 0 0.787v0c0.345-0.454 0.749-0.832 1.213-1.135 0.466-0.303 1.01-0.454 1.631-0.454v0c0.496 0 0.937 0.157 1.322 0.472 0.383 0.315 0.683 0.75 0.899 1.307 0.218 0.557 0.327 1.195 0.327 1.916v0c0 0.841-0.148 1.574-0.445 2.199-0.294 0.625-0.709 1.11-1.244 1.455-0.535 0.345-1.166 0.517-1.894 0.518v0c-0.597 0-1.159-0.075-1.685-0.224-0.526-0.151-1.024-0.299-1.491-0.442v0c0-0.202 0-0.499 0-0.892 0-0.393 0-0.846 0-1.359 0-0.512 0-1.045 0-1.597 0-0.551 0-1.088 0-1.613 0-0.524 0-0.997 0-1.419 0-0.422 0-0.75 0-0.986v0c0-0.355-0.001-0.748-0.004-1.18-0.002-0.434-0.011-0.855-0.027-1.265-0.014-0.409-0.041-0.751-0.081-1.026zM234.205 172.016v0 2.953c0.363 0.153 0.677 0.259 0.941 0.317 0.264 0.061 0.554 0.091 0.868 0.091v0c0.656 0 1.194-0.254 1.616-0.762 0.424-0.506 0.635-1.176 0.635-2.009v0c0-0.823-0.143-1.471-0.429-1.946-0.288-0.476-0.699-0.714-1.232-0.714v0c-0.458 0-0.91 0.191-1.355 0.572-0.446 0.383-0.794 0.882-1.044 1.498zM241.996 168.803l2.808 7.092-0.627 1.661-2.475-6.133c-0.139-0.335-0.3-0.711-0.481-1.129-0.182-0.42-0.416-0.917-0.702-1.491v0zM246.909 171.423v0l-1.773 4.913c-0.341 0.94-0.675 1.661-1.001 2.164-0.327 0.502-0.667 0.846-1.02 1.031-0.351 0.184-0.736 0.275-1.155 0.276v0c-0.335 0-0.653-0.054-0.953-0.164-0.301-0.111-0.586-0.265-0.857-0.463v0l0.442-1.183c0.159 0.129 0.367 0.254 0.623 0.375 0.256 0.119 0.504 0.179 0.745 0.179v0c0.222 0 0.438-0.063 0.647-0.188 0.21-0.125 0.427-0.376 0.651-0.753 0.224-0.377 0.469-0.937 0.735-1.679v0c0.038-0.113 0.091-0.261 0.157-0.445 0.067-0.182 0.141-0.39 0.224-0.626v0c0.184-0.518 0.398-1.127 0.644-1.825 0.246-0.7 0.499-1.42 0.76-2.16 0.262-0.742 0.504-1.433 0.726-2.072v0h1.476c-0.256 0.571-0.468 1.064-0.635 1.479-0.167 0.418-0.313 0.798-0.436 1.141zM252.522 166.918v-1.365h8.532v1.365c-0.294-0.065-0.586-0.105-0.874-0.121-0.288-0.018-0.6-0.027-0.935-0.028v0h-1.773v6.354c0 0.728 0.009 1.372 0.027 1.93 0.016 0.561 0.056 0.988 0.121 1.283v0h-1.7c0.065-0.294 0.106-0.722 0.124-1.283 0.016-0.559 0.024-1.202 0.024-1.93v0-6.354h-1.737c-0.329 0-0.638 0.009-0.929 0.028-0.29 0.016-0.584 0.056-0.88 0.121zM264.046 172.052v4.284h-1.367v-4.541c0-0.724-0.04-1.34-0.121-1.849-0.081-0.506-0.163-0.887-0.248-1.143v0h1.331c0.038 0.103 0.077 0.245 0.115 0.426 0.036 0.184 0.072 0.368 0.106 0.554 0.034 0.188 0.058 0.341 0.072 0.46v0c0.361-0.512 0.767-0.906 1.22-1.18 0.454-0.272 0.848-0.408 1.183-0.409v0c0.413 0 0.744 0.117 0.992 0.351 0.248 0.234 0.428 0.538 0.539 0.911 0.111 0.375 0.166 0.78 0.166 1.213v0l-1.18 0.257c0-0.369-0.07-0.695-0.209-0.977-0.137-0.284-0.351-0.427-0.641-0.426v0c-0.208 0-0.443 0.103-0.705 0.308-0.264 0.204-0.512 0.464-0.744 0.781-0.23 0.319-0.399 0.645-0.509 0.98zM268.812 172.606v0c0-0.847 0.163-1.565 0.49-2.154 0.327-0.587 0.762-1.034 1.307-1.341 0.545-0.305 1.14-0.457 1.785-0.457v0c0.68 0 1.277 0.152 1.791 0.457 0.514 0.307 0.917 0.753 1.207 1.341 0.29 0.589 0.436 1.307 0.436 2.154v0c0 0.847-0.163 1.561-0.49 2.142-0.329 0.581-0.763 1.022-1.304 1.322-0.543 0.301-1.139 0.451-1.788 0.451v0c-0.676 0-1.272-0.15-1.789-0.451-0.516-0.301-0.92-0.741-1.21-1.322-0.29-0.581-0.436-1.295-0.436-2.142zM270.176 172.606v0c0 0.861 0.199 1.532 0.596 2.012 0.395 0.48 0.911 0.72 1.546 0.72v0c0.597 0 1.103-0.24 1.519-0.72 0.416-0.48 0.623-1.151 0.623-2.012v0c0-0.867-0.198-1.546-0.593-2.037-0.397-0.488-0.914-0.732-1.549-0.732v0c-0.595 0-1.1 0.244-1.516 0.732-0.418 0.49-0.626 1.169-0.626 2.037zM278.303 167.695v0c0-1.109 0.225-1.94 0.674-2.493 0.452-0.555 1.076-0.832 1.873-0.832v0c0.597 0 1.139 0.172 1.625 0.517v0l-0.333 1.18c-0.397-0.294-0.828-0.442-1.292-0.441v0c-0.383 0-0.676 0.138-0.877 0.414-0.202 0.274-0.303 0.727-0.303 1.359v0c0 0.157 0 0.416 0 0.774 0 0.359 0 0.766 0 1.223 0 0.456 0 0.91 0 1.361 0 0.45 0 0.849 0 1.198 0 0.351 0 0.595 0 0.732v0c0 0.714 0.017 1.404 0.052 2.07 0.034 0.664 0.091 1.19 0.169 1.579v0h-1.588c0-0.69 0-1.414 0-2.172 0-0.758 0-1.501 0-2.227 0-0.726 0-1.393 0-2 0-0.609 0-1.113 0-1.513 0-0.399 0-0.642 0-0.729zM281.664 170.058h-4.838v-1.071h4.838zM283.361 168.803v0h1.48c0 0.67 0 1.339 0 2.009 0 0.67 0 1.341 0 2.015v0c0 0.317 0.006 0.7 0.018 1.149 0.012 0.45 0.029 0.89 0.052 1.319 0.022 0.428 0.047 0.775 0.075 1.041v0h-1.513c0-0.355 0-0.772 0-1.249 0-0.476 0-0.952 0-1.428 0-0.476 0-0.889 0-1.238v0c0-0.718-0.006-1.404-0.018-2.057-0.012-0.652-0.043-1.172-0.094-1.561zM283.213 166.4v0c0-0.274 0.087-0.509 0.26-0.705 0.171-0.194 0.393-0.29 0.666-0.29v0c0.274 0 0.503 0.097 0.687 0.29 0.182 0.196 0.272 0.431 0.272 0.705v0c0 0.272-0.091 0.506-0.272 0.702-0.184 0.198-0.412 0.297-0.687 0.297v0c-0.272 0-0.494-0.099-0.666-0.297-0.173-0.196-0.26-0.43-0.26-0.702zM293.225 171.462v0 4.874h-1.368v-4.211c0-0.609-0.032-1.07-0.097-1.383-0.065-0.313-0.174-0.523-0.329-0.632-0.153-0.109-0.368-0.163-0.645-0.164v0c-0.359 0-0.714 0.142-1.065 0.427-0.349 0.282-0.622 0.645-0.82 1.089v0 4.874h-1.364v-4.541c0-0.724-0.042-1.34-0.127-1.849-0.083-0.506-0.163-0.887-0.242-1.143v0h1.328c0.054 0.151 0.101 0.336 0.139 0.553 0.04 0.216 0.073 0.412 0.097 0.59v0c0.454-0.522 0.877-0.868 1.271-1.038 0.393-0.169 0.802-0.254 1.225-0.254v0c0.484 0 0.877 0.125 1.18 0.376 0.303 0.252 0.515 0.541 0.638 0.865v0c0.462-0.496 0.898-0.827 1.307-0.993 0.409-0.165 0.809-0.248 1.198-0.248v0c0.748 0 1.268 0.24 1.559 0.72 0.29 0.48 0.436 1.176 0.435 2.088v0 4.874h-1.367v-4.063c0-0.635-0.032-1.12-0.097-1.455-0.063-0.335-0.171-0.564-0.327-0.687-0.155-0.123-0.371-0.185-0.647-0.185v0c-0.359 0-0.709 0.137-1.05 0.412-0.339 0.272-0.616 0.64-0.832 1.104zM306.74 176.336v0h-1.256c-0.069-0.171-0.143-0.392-0.223-0.662-0.083-0.268-0.143-0.54-0.182-0.814v0c-0.448 0.541-0.911 0.953-1.389 1.237-0.478 0.282-0.975 0.424-1.491 0.424v0c-1.575 0-2.363-1.059-2.363-3.177v0c0-0.034 0-0.157 0-0.369 0-0.212 0-0.452 0-0.72 0-0.268 0-0.508 0-0.72 0-0.212 0-0.335 0-0.369v0c0-0.468-0.008-0.868-0.025-1.202-0.014-0.333-0.055-0.72-0.124-1.161v0h1.513v4.099c0 0.837 0.093 1.446 0.279 1.828 0.184 0.381 0.509 0.572 0.977 0.571v0c0.29 0 0.6-0.109 0.929-0.326 0.327-0.22 0.628-0.49 0.904-0.811 0.274-0.319 0.476-0.628 0.605-0.929v0-2.069c0-0.325-0.003-0.608-0.009-0.851-0.004-0.24-0.017-0.477-0.039-0.711-0.022-0.234-0.055-0.501-0.1-0.801v0h1.516v4.208c0 0.714 0.041 1.343 0.124 1.888 0.085 0.545 0.203 1.024 0.354 1.437zM309.881 164.518v11.818h-1.368c0-0.595 0-1.229 0-1.903 0-0.672 0-1.342 0-2.012 0-0.67 0-1.301 0-1.894 0-0.593 0-1.111 0-1.555 0-0.444 0-0.772 0-0.983v0c0-0.793-0.005-1.491-0.015-2.094-0.01-0.603-0.041-1.062-0.094-1.377v0zM309.511 172.273l3.362-3.47h1.845l-4.054 3.664zM313.13 176.336l-3.434-4.063 0.775-0.811 4.468 4.874zM321.95 173.492l-0.99 2.844h-1.516c0.133-0.301 0.276-0.64 0.43-1.019 0.153-0.379 0.355-0.914 0.605-1.604v0l2.956-8.16h1.588l2.953 8.16c0.246 0.686 0.449 1.22 0.609 1.604 0.157 0.385 0.3 0.725 0.426 1.019v0h-1.513l-1.004-2.844zM322.349 172.349h3.746l-1.885-5.356zM330.82 175.522v0c0-0.274 0.099-0.509 0.297-0.705 0.198-0.194 0.432-0.29 0.702-0.29v0c0.276 0 0.511 0.097 0.705 0.29 0.194 0.196 0.29 0.431 0.29 0.705v0c0 0.272-0.097 0.506-0.29 0.702-0.194 0.198-0.429 0.297-0.705 0.297v0c-0.27 0-0.504-0.099-0.702-0.297-0.198-0.196-0.297-0.43-0.297-0.702zM342.641 171.054v0c0-0.91-0.132-1.692-0.396-2.348-0.264-0.656-0.631-1.16-1.101-1.513-0.47-0.355-1.018-0.532-1.643-0.533v0c-0.621 0-1.171 0.169-1.649 0.509-0.476 0.341-0.85 0.824-1.123 1.449-0.27 0.625-0.405 1.364-0.405 2.215v0c0 0.896 0.132 1.674 0.396 2.335 0.262 0.66 0.631 1.168 1.108 1.525 0.476 0.357 1.034 0.536 1.673 0.536v0c0.605 0 1.145-0.166 1.619-0.499 0.472-0.333 0.843-0.811 1.113-1.434 0.272-0.621 0.408-1.369 0.408-2.242zM344.082 170.869v0c0 0.887-0.131 1.68-0.394 2.378-0.26 0.7-0.611 1.293-1.053 1.779-0.44 0.484-0.937 0.854-1.491 1.111-0.555 0.256-1.128 0.384-1.719 0.384v0c-0.595 0-1.165-0.121-1.709-0.363-0.543-0.24-1.028-0.594-1.456-1.062-0.426-0.468-0.761-1.043-1.007-1.725-0.246-0.682-0.369-1.466-0.369-2.354v0c0-0.885 0.13-1.677 0.39-2.375 0.262-0.696 0.616-1.288 1.062-1.776 0.446-0.488 0.948-0.86 1.507-1.116 0.559-0.254 1.136-0.381 1.73-0.381v0c0.587 0 1.15 0.12 1.689 0.36 0.541 0.242 1.022 0.597 1.443 1.065 0.424 0.468 0.759 1.043 1.007 1.724 0.246 0.682 0.369 1.465 0.37 2.351zM346.333 175.522v0c0-0.274 0.099-0.509 0.296-0.705 0.198-0.194 0.432-0.29 0.702-0.29v0c0.276 0 0.511 0.097 0.705 0.29 0.194 0.196 0.29 0.431 0.29 0.705v0c0 0.272-0.097 0.506-0.29 0.702-0.194 0.198-0.429 0.297-0.705 0.297v0c-0.27 0-0.504-0.099-0.702-0.297-0.198-0.196-0.297-0.43-0.296-0.702z" fill="black" fill-rule="nonzero" stroke="none" stroke-width="1" stroke-linecap="butt" stroke-linejoin="miter" stroke-miterlimit="10" stroke-dasharray="" stroke-dashoffset="0" font-family="none" font-weight="none" font-size="none" text-anchor="none" style="mix-blend-mode: normal" id="SvgjsPath2263"></path></g></g><g transform="matrix(1,0,0,1,29.33176499999999,34.69639063899983)"><svg viewBox="0 0 316.416 37.471038722000344" height="37.471038722000344" width="316.416"><g><svg viewBox="0 0 316.416 37.471038722000344" height="37.471038722000344" width="316.416"><g><svg viewBox="0 0 316.416 37.471038722000344" height="37.471038722000344" width="316.416"><g><svg viewBox="0 0 316.416 37.471038722000344" height="37.471038722000344" width="316.416"><g id="SvgjsG2262"><svg viewBox="0 0 316.416 37.471038722000344" height="37.471038722000344" width="316.416" id="SvgjsSvg2261"><g><svg viewBox="0 0 316.416 37.471038722000344" height="37.471038722000344" width="316.416"><g transform="matrix(1,0,0,1,0,0)"><svg width="316.416" viewBox="1.63 -33.48 287.91 34.11" height="37.471038722000344" data-palette-color="url(#4fd81b3a-4060-49e7-881e-87bd808bdb1e)"><path d="M14.83 0L8.22 0 1.63-31.95 5.88-31.95 10.53-8.08 11.4-3.48 11.85-3.48 12.7-8.08 17.38-31.13 23.5-31.13 28.18-8.08 29.03-3.48 29.48-3.48 30.38-8.08 35.02-31.95 39.23-31.95 32.65 0 26.1 0 22.4-18.38 20.65-27.7 20.25-27.7 18.48-18.38 14.83 0ZM53.87 0.63L53.87 0.63Q48.62 0.63 45.91-2.21 43.2-5.05 43.2-10.38L43.2-10.38 43.2-14.1Q43.2-19.4 45.92-22.23 48.65-25.05 53.87-25.05L53.87-25.05Q59.12-25.05 61.84-22.23 64.55-19.4 64.55-14.1L64.55-14.1 64.55-10.38Q64.55-5.05 61.84-2.21 59.12 0.63 53.87 0.63ZM53.87-2.68L53.87-2.68Q57.12-2.68 58.81-4.6 60.5-6.53 60.5-10.15L60.5-10.15 60.5-14.33Q60.5-17.93 58.81-19.84 57.12-21.75 53.87-21.75L53.87-21.75Q50.65-21.75 48.95-19.84 47.25-17.93 47.25-14.33L47.25-14.33 47.25-10.15Q47.25-6.53 48.95-4.6 50.65-2.68 53.87-2.68ZM74.02-14.93L74.02-14.93 73.09-18.05 74.09-18.1Q74.9-21.2 76.84-22.99 78.8-24.78 82.02-24.78L82.02-24.78Q82.82-24.78 83.46-24.65 84.09-24.53 84.59-24.35L84.59-24.35 84.84-20.43Q84.22-20.63 83.46-20.75 82.7-20.88 81.77-20.88L81.77-20.88Q79.02-20.88 76.98-19.35 74.95-17.82 74.02-14.93ZM74.22 0L70.17 0 70.17-24.4 74.12-24.4 73.92-17.2 74.22-16.9 74.22 0ZM92.97 0L88.94 0 88.94-33.13 92.97-33.13 92.97 0ZM107.74 0.53L107.74 0.53Q103.34 0.53 101.04-2.2 98.74-4.93 98.74-10.15L98.74-10.15 98.74-14.18Q98.74-19.43 101.07-22.19 103.39-24.95 107.92-24.95L107.92-24.95Q110.17-24.95 111.82-24.19 113.47-23.43 114.49-22.05 115.52-20.68 115.87-18.8L115.87-18.8 117.19-18.8 115.99-15.08Q115.92-17.23 115.03-18.69 114.14-20.15 112.63-20.9 111.12-21.65 109.17-21.65L109.17-21.65Q106.07-21.65 104.43-19.85 102.79-18.05 102.79-14.55L102.79-14.55 102.79-9.9Q102.79-6.45 104.43-4.65 106.07-2.85 109.17-2.85L109.17-2.85Q111.02-2.85 112.44-3.56 113.87-4.28 114.8-5.54 115.74-6.8 116.09-8.4L116.09-8.4 117.09-5.5 115.89-5.5Q115.54-3.85 114.55-2.48 113.57-1.1 111.9-0.29 110.24 0.53 107.74 0.53ZM119.94 0L115.89 0 116.07-5.9 115.99-7.2 115.99-17.4 116.02-18.25 115.92-25.18 115.92-33.13 119.94-33.13 119.94 0ZM138.76 0L134.56 0 144.56-31.95 151.11-31.95 161.14 0 156.94 0 148.16-29.15 147.53-29.15 138.76 0ZM155.11-9.43L140.56-9.43 140.56-12.88 155.11-12.88 155.11-9.43ZM169.51-14.93L169.51-14.93 168.58-18.05 169.58-18.1Q170.38-21.2 172.33-22.99 174.28-24.78 177.51-24.78L177.51-24.78Q178.31-24.78 178.95-24.65 179.58-24.53 180.08-24.35L180.08-24.35 180.33-20.43Q179.71-20.63 178.95-20.75 178.18-20.88 177.26-20.88L177.26-20.88Q174.51-20.88 172.47-19.35 170.43-17.82 169.51-14.93ZM169.71 0L165.66 0 165.66-24.4 169.61-24.4 169.41-17.2 169.71-16.9 169.71 0ZM193.18 0.5L193.18 0.5Q190.36 0.5 188.63-0.35 186.91-1.2 186.13-2.93 185.36-4.65 185.36-7.23L185.36-7.23 185.36-22.63 189.36-22.63 189.36-7.7Q189.36-5.3 190.46-4.16 191.56-3.03 194.16-3.03L194.16-3.03Q195.63-3.03 196.99-3.35 198.36-3.68 199.56-4.28L199.56-4.28 199.18-0.8Q198.01-0.2 196.43 0.15 194.86 0.5 193.18 0.5ZM198.93-20.8L181.36-20.8 181.36-24.05 199.31-24.05 198.93-20.8ZM189.26-23.65L185.38-23.65 185.36-30.5 189.43-31.03 189.26-23.65ZM208.2 0L204.15 0 204.15-24.4 208.2-24.4 208.2 0ZM206.18-28.4L206.18-28.4Q204.93-28.4 204.32-29.06 203.7-29.73 203.7-30.88L203.7-30.88 203.7-31Q203.7-32.18 204.32-32.83 204.93-33.48 206.18-33.48L206.18-33.48Q207.43-33.48 208.05-32.83 208.68-32.18 208.68-31L208.68-31 208.68-30.88Q208.68-29.7 208.05-29.05 207.43-28.4 206.18-28.4ZM224.3 0.55L224.3 0.55Q219.05 0.55 216.49-2.29 213.93-5.13 213.93-10.33L213.93-10.33 213.93-14.13Q213.93-19.35 216.5-22.16 219.08-24.98 224.3-24.98L224.3-24.98Q225.85-24.98 227.13-24.69 228.4-24.4 229.41-23.94 230.43-23.48 231.13-22.98L231.13-22.98 231.48-19.45Q230.3-20.35 228.69-20.98 227.08-21.6 224.9-21.6L224.9-21.6Q221.4-21.6 219.69-19.66 217.98-17.73 217.98-14.03L217.98-14.03 217.98-10.43Q217.98-6.8 219.69-4.85 221.4-2.9 224.9-2.9L224.9-2.9Q227.15-2.9 228.79-3.53 230.43-4.15 231.7-5.05L231.7-5.05 231.33-1.48Q230.23-0.73 228.45-0.09 226.68 0.55 224.3 0.55ZM240.75 0L236.72 0 236.72-33.13 240.75-33.13 240.75 0ZM257.72 0.55L257.72 0.55Q252.15 0.55 249.32-2.18 246.5-4.9 246.5-9.98L246.5-9.98 246.5-14.33Q246.5-19.48 249.12-22.26 251.75-25.05 256.8-25.05L256.8-25.05Q260.19-25.05 262.47-23.79 264.75-22.53 265.9-20.2 267.05-17.88 267.05-14.65L267.05-14.65 267.05-13.75Q267.05-12.95 266.98-12.15 266.92-11.35 266.82-10.58L266.82-10.58 263.1-10.58Q263.15-11.78 263.16-12.85 263.17-13.93 263.17-14.83L263.17-14.83Q263.17-17.05 262.46-18.59 261.75-20.13 260.33-20.94 258.92-21.75 256.8-21.75L256.8-21.75Q253.65-21.75 252.07-19.93 250.5-18.1 250.5-14.7L250.5-14.7 250.5-12.38 250.52-11.88 250.52-9.55Q250.52-8.03 250.97-6.8 251.42-5.58 252.38-4.69 253.35-3.8 254.83-3.34 256.32-2.88 258.37-2.88L258.37-2.88Q260.75-2.88 262.8-3.5 264.85-4.13 266.65-5.2L266.65-5.2 266.27-1.7Q264.65-0.68 262.5-0.06 260.35 0.55 257.72 0.55ZM265.97-10.58L248.62-10.58 248.62-13.63 265.97-13.63 265.97-10.58ZM280.07 0.55L280.07 0.55Q277.12 0.55 274.92-0.09 272.72-0.73 271.27-1.48L271.27-1.48 270.89-5.23Q272.72-4.28 274.91-3.58 277.09-2.88 279.87-2.88L279.87-2.88Q282.69-2.88 284.12-3.78 285.54-4.67 285.54-6.45L285.54-6.45 285.54-6.73Q285.54-7.88 285.01-8.63 284.47-9.38 283.07-9.95 281.67-10.53 279.09-11.1L279.09-11.1Q276.02-11.78 274.24-12.69 272.47-13.6 271.71-14.95 270.94-16.3 270.94-18.25L270.94-18.25 270.94-18.48Q270.94-21.68 273.17-23.33 275.39-24.98 279.87-24.98L279.87-24.98Q282.74-24.98 284.86-24.33 286.97-23.68 288.32-22.88L288.32-22.88 288.69-19.45Q287.07-20.4 284.97-21.03 282.87-21.65 280.24-21.65L280.24-21.65Q278.34-21.65 277.17-21.26 275.99-20.88 275.47-20.16 274.94-19.45 274.94-18.45L274.94-18.45 274.94-18.25Q274.94-17.15 275.47-16.39 275.99-15.63 277.36-15.06 278.72-14.5 281.14-13.98L281.14-13.98Q284.27-13.35 286.11-12.48 287.94-11.6 288.74-10.26 289.54-8.93 289.54-6.83L289.54-6.83 289.54-6.4Q289.54-2.95 287.14-1.2 284.74 0.55 280.07 0.55Z" opacity="1" transform="matrix(1,0,0,1,0,0)" fill="black" class="wordmark-text-0" id="SvgjsPath2260"></path></svg></g></svg></g></svg></g></svg></g></svg></g></svg></g></svg></g></svg></g><defs><mask></mask></defs></svg><rect width="375.07953" height="106.86382" fill="black" stroke="none" visibility="hidden"></rect></g></mask><mask><g id="SvgjsG2259"><svg viewBox="0 0 375.07953 106.86382" height="106.86382" width="375.07953"><g><svg></svg></g><g><svg viewBox="0 0 375.07953 106.86382" height="106.86382" width="375.07953"><g transform="matrix(1,0,0,1,-10.22024,-72.94274999999999)"><path d="M10.22 174.257v-101.314h375.08v101.314h-26.836v-3.379h23.457v-94.556h-368.322v94.556l208.989 0 0 3.379z" fill="black" fill-rule="nonzero" stroke="none" stroke-width="1" stroke-linecap="butt" stroke-linejoin="miter" stroke-miterlimit="10" stroke-dasharray="" stroke-dashoffset="0" font-family="none" font-weight="none" font-size="none" text-anchor="none" style="mix-blend-mode: normal"></path><g><path d="M232.726 164.518v0h1.479c0 0.541 0 1.117 0 1.731 0 0.613 0 1.201 0 1.764 0 0.561 0 1.042 0 1.443 0 0.401 0 0.664 0 0.787v0c0.345-0.454 0.749-0.832 1.213-1.135 0.466-0.303 1.01-0.454 1.631-0.454v0c0.496 0 0.937 0.157 1.322 0.472 0.383 0.315 0.683 0.75 0.899 1.307 0.218 0.557 0.327 1.195 0.327 1.916v0c0 0.841-0.148 1.574-0.445 2.199-0.294 0.625-0.709 1.11-1.244 1.455-0.535 0.345-1.166 0.517-1.894 0.518v0c-0.597 0-1.159-0.075-1.685-0.224-0.526-0.151-1.024-0.299-1.491-0.442v0c0-0.202 0-0.499 0-0.892 0-0.393 0-0.846 0-1.359 0-0.512 0-1.045 0-1.597 0-0.551 0-1.088 0-1.613 0-0.524 0-0.997 0-1.419 0-0.422 0-0.75 0-0.986v0c0-0.355-0.001-0.748-0.004-1.18-0.002-0.434-0.011-0.855-0.027-1.265-0.014-0.409-0.041-0.751-0.081-1.026zM234.205 172.016v0 2.953c0.363 0.153 0.677 0.259 0.941 0.317 0.264 0.061 0.554 0.091 0.868 0.091v0c0.656 0 1.194-0.254 1.616-0.762 0.424-0.506 0.635-1.176 0.635-2.009v0c0-0.823-0.143-1.471-0.429-1.946-0.288-0.476-0.699-0.714-1.232-0.714v0c-0.458 0-0.91 0.191-1.355 0.572-0.446 0.383-0.794 0.882-1.044 1.498zM241.996 168.803l2.808 7.092-0.627 1.661-2.475-6.133c-0.139-0.335-0.3-0.711-0.481-1.129-0.182-0.42-0.416-0.917-0.702-1.491v0zM246.909 171.423v0l-1.773 4.913c-0.341 0.94-0.675 1.661-1.001 2.164-0.327 0.502-0.667 0.846-1.02 1.031-0.351 0.184-0.736 0.275-1.155 0.276v0c-0.335 0-0.653-0.054-0.953-0.164-0.301-0.111-0.586-0.265-0.857-0.463v0l0.442-1.183c0.159 0.129 0.367 0.254 0.623 0.375 0.256 0.119 0.504 0.179 0.745 0.179v0c0.222 0 0.438-0.063 0.647-0.188 0.21-0.125 0.427-0.376 0.651-0.753 0.224-0.377 0.469-0.937 0.735-1.679v0c0.038-0.113 0.091-0.261 0.157-0.445 0.067-0.182 0.141-0.39 0.224-0.626v0c0.184-0.518 0.398-1.127 0.644-1.825 0.246-0.7 0.499-1.42 0.76-2.16 0.262-0.742 0.504-1.433 0.726-2.072v0h1.476c-0.256 0.571-0.468 1.064-0.635 1.479-0.167 0.418-0.313 0.798-0.436 1.141zM252.522 166.918v-1.365h8.532v1.365c-0.294-0.065-0.586-0.105-0.874-0.121-0.288-0.018-0.6-0.027-0.935-0.028v0h-1.773v6.354c0 0.728 0.009 1.372 0.027 1.93 0.016 0.561 0.056 0.988 0.121 1.283v0h-1.7c0.065-0.294 0.106-0.722 0.124-1.283 0.016-0.559 0.024-1.202 0.024-1.93v0-6.354h-1.737c-0.329 0-0.638 0.009-0.929 0.028-0.29 0.016-0.584 0.056-0.88 0.121zM264.046 172.052v4.284h-1.367v-4.541c0-0.724-0.04-1.34-0.121-1.849-0.081-0.506-0.163-0.887-0.248-1.143v0h1.331c0.038 0.103 0.077 0.245 0.115 0.426 0.036 0.184 0.072 0.368 0.106 0.554 0.034 0.188 0.058 0.341 0.072 0.46v0c0.361-0.512 0.767-0.906 1.22-1.18 0.454-0.272 0.848-0.408 1.183-0.409v0c0.413 0 0.744 0.117 0.992 0.351 0.248 0.234 0.428 0.538 0.539 0.911 0.111 0.375 0.166 0.78 0.166 1.213v0l-1.18 0.257c0-0.369-0.07-0.695-0.209-0.977-0.137-0.284-0.351-0.427-0.641-0.426v0c-0.208 0-0.443 0.103-0.705 0.308-0.264 0.204-0.512 0.464-0.744 0.781-0.23 0.319-0.399 0.645-0.509 0.98zM268.812 172.606v0c0-0.847 0.163-1.565 0.49-2.154 0.327-0.587 0.762-1.034 1.307-1.341 0.545-0.305 1.14-0.457 1.785-0.457v0c0.68 0 1.277 0.152 1.791 0.457 0.514 0.307 0.917 0.753 1.207 1.341 0.29 0.589 0.436 1.307 0.436 2.154v0c0 0.847-0.163 1.561-0.49 2.142-0.329 0.581-0.763 1.022-1.304 1.322-0.543 0.301-1.139 0.451-1.788 0.451v0c-0.676 0-1.272-0.15-1.789-0.451-0.516-0.301-0.92-0.741-1.21-1.322-0.29-0.581-0.436-1.295-0.436-2.142zM270.176 172.606v0c0 0.861 0.199 1.532 0.596 2.012 0.395 0.48 0.911 0.72 1.546 0.72v0c0.597 0 1.103-0.24 1.519-0.72 0.416-0.48 0.623-1.151 0.623-2.012v0c0-0.867-0.198-1.546-0.593-2.037-0.397-0.488-0.914-0.732-1.549-0.732v0c-0.595 0-1.1 0.244-1.516 0.732-0.418 0.49-0.626 1.169-0.626 2.037zM278.303 167.695v0c0-1.109 0.225-1.94 0.674-2.493 0.452-0.555 1.076-0.832 1.873-0.832v0c0.597 0 1.139 0.172 1.625 0.517v0l-0.333 1.18c-0.397-0.294-0.828-0.442-1.292-0.441v0c-0.383 0-0.676 0.138-0.877 0.414-0.202 0.274-0.303 0.727-0.303 1.359v0c0 0.157 0 0.416 0 0.774 0 0.359 0 0.766 0 1.223 0 0.456 0 0.91 0 1.361 0 0.45 0 0.849 0 1.198 0 0.351 0 0.595 0 0.732v0c0 0.714 0.017 1.404 0.052 2.07 0.034 0.664 0.091 1.19 0.169 1.579v0h-1.588c0-0.69 0-1.414 0-2.172 0-0.758 0-1.501 0-2.227 0-0.726 0-1.393 0-2 0-0.609 0-1.113 0-1.513 0-0.399 0-0.642 0-0.729zM281.664 170.058h-4.838v-1.071h4.838zM283.361 168.803v0h1.48c0 0.67 0 1.339 0 2.009 0 0.67 0 1.341 0 2.015v0c0 0.317 0.006 0.7 0.018 1.149 0.012 0.45 0.029 0.89 0.052 1.319 0.022 0.428 0.047 0.775 0.075 1.041v0h-1.513c0-0.355 0-0.772 0-1.249 0-0.476 0-0.952 0-1.428 0-0.476 0-0.889 0-1.238v0c0-0.718-0.006-1.404-0.018-2.057-0.012-0.652-0.043-1.172-0.094-1.561zM283.213 166.4v0c0-0.274 0.087-0.509 0.26-0.705 0.171-0.194 0.393-0.29 0.666-0.29v0c0.274 0 0.503 0.097 0.687 0.29 0.182 0.196 0.272 0.431 0.272 0.705v0c0 0.272-0.091 0.506-0.272 0.702-0.184 0.198-0.412 0.297-0.687 0.297v0c-0.272 0-0.494-0.099-0.666-0.297-0.173-0.196-0.26-0.43-0.26-0.702zM293.225 171.462v0 4.874h-1.368v-4.211c0-0.609-0.032-1.07-0.097-1.383-0.065-0.313-0.174-0.523-0.329-0.632-0.153-0.109-0.368-0.163-0.645-0.164v0c-0.359 0-0.714 0.142-1.065 0.427-0.349 0.282-0.622 0.645-0.82 1.089v0 4.874h-1.364v-4.541c0-0.724-0.042-1.34-0.127-1.849-0.083-0.506-0.163-0.887-0.242-1.143v0h1.328c0.054 0.151 0.101 0.336 0.139 0.553 0.04 0.216 0.073 0.412 0.097 0.59v0c0.454-0.522 0.877-0.868 1.271-1.038 0.393-0.169 0.802-0.254 1.225-0.254v0c0.484 0 0.877 0.125 1.18 0.376 0.303 0.252 0.515 0.541 0.638 0.865v0c0.462-0.496 0.898-0.827 1.307-0.993 0.409-0.165 0.809-0.248 1.198-0.248v0c0.748 0 1.268 0.24 1.559 0.72 0.29 0.48 0.436 1.176 0.435 2.088v0 4.874h-1.367v-4.063c0-0.635-0.032-1.12-0.097-1.455-0.063-0.335-0.171-0.564-0.327-0.687-0.155-0.123-0.371-0.185-0.647-0.185v0c-0.359 0-0.709 0.137-1.05 0.412-0.339 0.272-0.616 0.64-0.832 1.104zM306.74 176.336v0h-1.256c-0.069-0.171-0.143-0.392-0.223-0.662-0.083-0.268-0.143-0.54-0.182-0.814v0c-0.448 0.541-0.911 0.953-1.389 1.237-0.478 0.282-0.975 0.424-1.491 0.424v0c-1.575 0-2.363-1.059-2.363-3.177v0c0-0.034 0-0.157 0-0.369 0-0.212 0-0.452 0-0.72 0-0.268 0-0.508 0-0.72 0-0.212 0-0.335 0-0.369v0c0-0.468-0.008-0.868-0.025-1.202-0.014-0.333-0.055-0.72-0.124-1.161v0h1.513v4.099c0 0.837 0.093 1.446 0.279 1.828 0.184 0.381 0.509 0.572 0.977 0.571v0c0.29 0 0.6-0.109 0.929-0.326 0.327-0.22 0.628-0.49 0.904-0.811 0.274-0.319 0.476-0.628 0.605-0.929v0-2.069c0-0.325-0.003-0.608-0.009-0.851-0.004-0.24-0.017-0.477-0.039-0.711-0.022-0.234-0.055-0.501-0.1-0.801v0h1.516v4.208c0 0.714 0.041 1.343 0.124 1.888 0.085 0.545 0.203 1.024 0.354 1.437zM309.881 164.518v11.818h-1.368c0-0.595 0-1.229 0-1.903 0-0.672 0-1.342 0-2.012 0-0.67 0-1.301 0-1.894 0-0.593 0-1.111 0-1.555 0-0.444 0-0.772 0-0.983v0c0-0.793-0.005-1.491-0.015-2.094-0.01-0.603-0.041-1.062-0.094-1.377v0zM309.511 172.273l3.362-3.47h1.845l-4.054 3.664zM313.13 176.336l-3.434-4.063 0.775-0.811 4.468 4.874zM321.95 173.492l-0.99 2.844h-1.516c0.133-0.301 0.276-0.64 0.43-1.019 0.153-0.379 0.355-0.914 0.605-1.604v0l2.956-8.16h1.588l2.953 8.16c0.246 0.686 0.449 1.22 0.609 1.604 0.157 0.385 0.3 0.725 0.426 1.019v0h-1.513l-1.004-2.844zM322.349 172.349h3.746l-1.885-5.356zM330.82 175.522v0c0-0.274 0.099-0.509 0.297-0.705 0.198-0.194 0.432-0.29 0.702-0.29v0c0.276 0 0.511 0.097 0.705 0.29 0.194 0.196 0.29 0.431 0.29 0.705v0c0 0.272-0.097 0.506-0.29 0.702-0.194 0.198-0.429 0.297-0.705 0.297v0c-0.27 0-0.504-0.099-0.702-0.297-0.198-0.196-0.297-0.43-0.297-0.702zM342.641 171.054v0c0-0.91-0.132-1.692-0.396-2.348-0.264-0.656-0.631-1.16-1.101-1.513-0.47-0.355-1.018-0.532-1.643-0.533v0c-0.621 0-1.171 0.169-1.649 0.509-0.476 0.341-0.85 0.824-1.123 1.449-0.27 0.625-0.405 1.364-0.405 2.215v0c0 0.896 0.132 1.674 0.396 2.335 0.262 0.66 0.631 1.168 1.108 1.525 0.476 0.357 1.034 0.536 1.673 0.536v0c0.605 0 1.145-0.166 1.619-0.499 0.472-0.333 0.843-0.811 1.113-1.434 0.272-0.621 0.408-1.369 0.408-2.242zM344.082 170.869v0c0 0.887-0.131 1.68-0.394 2.378-0.26 0.7-0.611 1.293-1.053 1.779-0.44 0.484-0.937 0.854-1.491 1.111-0.555 0.256-1.128 0.384-1.719 0.384v0c-0.595 0-1.165-0.121-1.709-0.363-0.543-0.24-1.028-0.594-1.456-1.062-0.426-0.468-0.761-1.043-1.007-1.725-0.246-0.682-0.369-1.466-0.369-2.354v0c0-0.885 0.13-1.677 0.39-2.375 0.262-0.696 0.616-1.288 1.062-1.776 0.446-0.488 0.948-0.86 1.507-1.116 0.559-0.254 1.136-0.381 1.73-0.381v0c0.587 0 1.15 0.12 1.689 0.36 0.541 0.242 1.022 0.597 1.443 1.065 0.424 0.468 0.759 1.043 1.007 1.724 0.246 0.682 0.369 1.465 0.37 2.351zM346.333 175.522v0c0-0.274 0.099-0.509 0.296-0.705 0.198-0.194 0.432-0.29 0.702-0.29v0c0.276 0 0.511 0.097 0.705 0.29 0.194 0.196 0.29 0.431 0.29 0.705v0c0 0.272-0.097 0.506-0.29 0.702-0.194 0.198-0.429 0.297-0.705 0.297v0c-0.27 0-0.504-0.099-0.702-0.297-0.198-0.196-0.297-0.43-0.296-0.702z" fill="black" fill-rule="nonzero" stroke="none" stroke-width="1" stroke-linecap="butt" stroke-linejoin="miter" stroke-miterlimit="10" stroke-dasharray="" stroke-dashoffset="0" font-family="none" font-weight="none" font-size="none" text-anchor="none" style="mix-blend-mode: normal" id="SvgjsPath2258"></path></g></g><g transform="matrix(1,0,0,1,29.33176499999999,34.69639063899983)"><svg viewBox="0 0 316.416 37.471038722000344" height="37.471038722000344" width="316.416"><g><svg viewBox="0 0 316.416 37.471038722000344" height="37.471038722000344" width="316.416"><g><svg viewBox="0 0 316.416 37.471038722000344" height="37.471038722000344" width="316.416"><g><svg viewBox="0 0 316.416 37.471038722000344" height="37.471038722000344" width="316.416"><g id="SvgjsG2257"><svg viewBox="0 0 316.416 37.471038722000344" height="37.471038722000344" width="316.416" id="SvgjsSvg2256"><g><svg viewBox="0 0 316.416 37.471038722000344" height="37.471038722000344" width="316.416"><g transform="matrix(1,0,0,1,0,0)"><svg width="316.416" viewBox="1.63 -33.48 287.91 34.11" height="37.471038722000344" data-palette-color="url(#4fd81b3a-4060-49e7-881e-87bd808bdb1e)"></svg></g></svg></g></svg></g></svg></g></svg></g></svg></g></svg></g></svg></g><defs><mask></mask></defs><mask><g id="SvgjsG2255"><svg viewBox="0 0 375.07953 106.86382" height="106.86382" width="375.07953"><g><svg></svg></g><g><svg viewBox="0 0 375.07953 106.86382" height="106.86382" width="375.07953"><g transform="matrix(1,0,0,1,-10.22024,-72.94274999999999)"><path d="M10.22 174.257v-101.314h375.08v101.314h-26.836v-3.379h23.457v-94.556h-368.322v94.556l208.989 0 0 3.379z" fill="black" fill-rule="nonzero" stroke="none" stroke-width="1" stroke-linecap="butt" stroke-linejoin="miter" stroke-miterlimit="10" stroke-dasharray="" stroke-dashoffset="0" font-family="none" font-weight="none" font-size="none" text-anchor="none" style="mix-blend-mode: normal"></path><g><path d="M232.726 164.518v0h1.479c0 0.541 0 1.117 0 1.731 0 0.613 0 1.201 0 1.764 0 0.561 0 1.042 0 1.443 0 0.401 0 0.664 0 0.787v0c0.345-0.454 0.749-0.832 1.213-1.135 0.466-0.303 1.01-0.454 1.631-0.454v0c0.496 0 0.937 0.157 1.322 0.472 0.383 0.315 0.683 0.75 0.899 1.307 0.218 0.557 0.327 1.195 0.327 1.916v0c0 0.841-0.148 1.574-0.445 2.199-0.294 0.625-0.709 1.11-1.244 1.455-0.535 0.345-1.166 0.517-1.894 0.518v0c-0.597 0-1.159-0.075-1.685-0.224-0.526-0.151-1.024-0.299-1.491-0.442v0c0-0.202 0-0.499 0-0.892 0-0.393 0-0.846 0-1.359 0-0.512 0-1.045 0-1.597 0-0.551 0-1.088 0-1.613 0-0.524 0-0.997 0-1.419 0-0.422 0-0.75 0-0.986v0c0-0.355-0.001-0.748-0.004-1.18-0.002-0.434-0.011-0.855-0.027-1.265-0.014-0.409-0.041-0.751-0.081-1.026zM234.205 172.016v0 2.953c0.363 0.153 0.677 0.259 0.941 0.317 0.264 0.061 0.554 0.091 0.868 0.091v0c0.656 0 1.194-0.254 1.616-0.762 0.424-0.506 0.635-1.176 0.635-2.009v0c0-0.823-0.143-1.471-0.429-1.946-0.288-0.476-0.699-0.714-1.232-0.714v0c-0.458 0-0.91 0.191-1.355 0.572-0.446 0.383-0.794 0.882-1.044 1.498zM241.996 168.803l2.808 7.092-0.627 1.661-2.475-6.133c-0.139-0.335-0.3-0.711-0.481-1.129-0.182-0.42-0.416-0.917-0.702-1.491v0zM246.909 171.423v0l-1.773 4.913c-0.341 0.94-0.675 1.661-1.001 2.164-0.327 0.502-0.667 0.846-1.02 1.031-0.351 0.184-0.736 0.275-1.155 0.276v0c-0.335 0-0.653-0.054-0.953-0.164-0.301-0.111-0.586-0.265-0.857-0.463v0l0.442-1.183c0.159 0.129 0.367 0.254 0.623 0.375 0.256 0.119 0.504 0.179 0.745 0.179v0c0.222 0 0.438-0.063 0.647-0.188 0.21-0.125 0.427-0.376 0.651-0.753 0.224-0.377 0.469-0.937 0.735-1.679v0c0.038-0.113 0.091-0.261 0.157-0.445 0.067-0.182 0.141-0.39 0.224-0.626v0c0.184-0.518 0.398-1.127 0.644-1.825 0.246-0.7 0.499-1.42 0.76-2.16 0.262-0.742 0.504-1.433 0.726-2.072v0h1.476c-0.256 0.571-0.468 1.064-0.635 1.479-0.167 0.418-0.313 0.798-0.436 1.141zM252.522 166.918v-1.365h8.532v1.365c-0.294-0.065-0.586-0.105-0.874-0.121-0.288-0.018-0.6-0.027-0.935-0.028v0h-1.773v6.354c0 0.728 0.009 1.372 0.027 1.93 0.016 0.561 0.056 0.988 0.121 1.283v0h-1.7c0.065-0.294 0.106-0.722 0.124-1.283 0.016-0.559 0.024-1.202 0.024-1.93v0-6.354h-1.737c-0.329 0-0.638 0.009-0.929 0.028-0.29 0.016-0.584 0.056-0.88 0.121zM264.046 172.052v4.284h-1.367v-4.541c0-0.724-0.04-1.34-0.121-1.849-0.081-0.506-0.163-0.887-0.248-1.143v0h1.331c0.038 0.103 0.077 0.245 0.115 0.426 0.036 0.184 0.072 0.368 0.106 0.554 0.034 0.188 0.058 0.341 0.072 0.46v0c0.361-0.512 0.767-0.906 1.22-1.18 0.454-0.272 0.848-0.408 1.183-0.409v0c0.413 0 0.744 0.117 0.992 0.351 0.248 0.234 0.428 0.538 0.539 0.911 0.111 0.375 0.166 0.78 0.166 1.213v0l-1.18 0.257c0-0.369-0.07-0.695-0.209-0.977-0.137-0.284-0.351-0.427-0.641-0.426v0c-0.208 0-0.443 0.103-0.705 0.308-0.264 0.204-0.512 0.464-0.744 0.781-0.23 0.319-0.399 0.645-0.509 0.98zM268.812 172.606v0c0-0.847 0.163-1.565 0.49-2.154 0.327-0.587 0.762-1.034 1.307-1.341 0.545-0.305 1.14-0.457 1.785-0.457v0c0.68 0 1.277 0.152 1.791 0.457 0.514 0.307 0.917 0.753 1.207 1.341 0.29 0.589 0.436 1.307 0.436 2.154v0c0 0.847-0.163 1.561-0.49 2.142-0.329 0.581-0.763 1.022-1.304 1.322-0.543 0.301-1.139 0.451-1.788 0.451v0c-0.676 0-1.272-0.15-1.789-0.451-0.516-0.301-0.92-0.741-1.21-1.322-0.29-0.581-0.436-1.295-0.436-2.142zM270.176 172.606v0c0 0.861 0.199 1.532 0.596 2.012 0.395 0.48 0.911 0.72 1.546 0.72v0c0.597 0 1.103-0.24 1.519-0.72 0.416-0.48 0.623-1.151 0.623-2.012v0c0-0.867-0.198-1.546-0.593-2.037-0.397-0.488-0.914-0.732-1.549-0.732v0c-0.595 0-1.1 0.244-1.516 0.732-0.418 0.49-0.626 1.169-0.626 2.037zM278.303 167.695v0c0-1.109 0.225-1.94 0.674-2.493 0.452-0.555 1.076-0.832 1.873-0.832v0c0.597 0 1.139 0.172 1.625 0.517v0l-0.333 1.18c-0.397-0.294-0.828-0.442-1.292-0.441v0c-0.383 0-0.676 0.138-0.877 0.414-0.202 0.274-0.303 0.727-0.303 1.359v0c0 0.157 0 0.416 0 0.774 0 0.359 0 0.766 0 1.223 0 0.456 0 0.91 0 1.361 0 0.45 0 0.849 0 1.198 0 0.351 0 0.595 0 0.732v0c0 0.714 0.017 1.404 0.052 2.07 0.034 0.664 0.091 1.19 0.169 1.579v0h-1.588c0-0.69 0-1.414 0-2.172 0-0.758 0-1.501 0-2.227 0-0.726 0-1.393 0-2 0-0.609 0-1.113 0-1.513 0-0.399 0-0.642 0-0.729zM281.664 170.058h-4.838v-1.071h4.838zM283.361 168.803v0h1.48c0 0.67 0 1.339 0 2.009 0 0.67 0 1.341 0 2.015v0c0 0.317 0.006 0.7 0.018 1.149 0.012 0.45 0.029 0.89 0.052 1.319 0.022 0.428 0.047 0.775 0.075 1.041v0h-1.513c0-0.355 0-0.772 0-1.249 0-0.476 0-0.952 0-1.428 0-0.476 0-0.889 0-1.238v0c0-0.718-0.006-1.404-0.018-2.057-0.012-0.652-0.043-1.172-0.094-1.561zM283.213 166.4v0c0-0.274 0.087-0.509 0.26-0.705 0.171-0.194 0.393-0.29 0.666-0.29v0c0.274 0 0.503 0.097 0.687 0.29 0.182 0.196 0.272 0.431 0.272 0.705v0c0 0.272-0.091 0.506-0.272 0.702-0.184 0.198-0.412 0.297-0.687 0.297v0c-0.272 0-0.494-0.099-0.666-0.297-0.173-0.196-0.26-0.43-0.26-0.702zM293.225 171.462v0 4.874h-1.368v-4.211c0-0.609-0.032-1.07-0.097-1.383-0.065-0.313-0.174-0.523-0.329-0.632-0.153-0.109-0.368-0.163-0.645-0.164v0c-0.359 0-0.714 0.142-1.065 0.427-0.349 0.282-0.622 0.645-0.82 1.089v0 4.874h-1.364v-4.541c0-0.724-0.042-1.34-0.127-1.849-0.083-0.506-0.163-0.887-0.242-1.143v0h1.328c0.054 0.151 0.101 0.336 0.139 0.553 0.04 0.216 0.073 0.412 0.097 0.59v0c0.454-0.522 0.877-0.868 1.271-1.038 0.393-0.169 0.802-0.254 1.225-0.254v0c0.484 0 0.877 0.125 1.18 0.376 0.303 0.252 0.515 0.541 0.638 0.865v0c0.462-0.496 0.898-0.827 1.307-0.993 0.409-0.165 0.809-0.248 1.198-0.248v0c0.748 0 1.268 0.24 1.559 0.72 0.29 0.48 0.436 1.176 0.435 2.088v0 4.874h-1.367v-4.063c0-0.635-0.032-1.12-0.097-1.455-0.063-0.335-0.171-0.564-0.327-0.687-0.155-0.123-0.371-0.185-0.647-0.185v0c-0.359 0-0.709 0.137-1.05 0.412-0.339 0.272-0.616 0.64-0.832 1.104zM306.74 176.336v0h-1.256c-0.069-0.171-0.143-0.392-0.223-0.662-0.083-0.268-0.143-0.54-0.182-0.814v0c-0.448 0.541-0.911 0.953-1.389 1.237-0.478 0.282-0.975 0.424-1.491 0.424v0c-1.575 0-2.363-1.059-2.363-3.177v0c0-0.034 0-0.157 0-0.369 0-0.212 0-0.452 0-0.72 0-0.268 0-0.508 0-0.72 0-0.212 0-0.335 0-0.369v0c0-0.468-0.008-0.868-0.025-1.202-0.014-0.333-0.055-0.72-0.124-1.161v0h1.513v4.099c0 0.837 0.093 1.446 0.279 1.828 0.184 0.381 0.509 0.572 0.977 0.571v0c0.29 0 0.6-0.109 0.929-0.326 0.327-0.22 0.628-0.49 0.904-0.811 0.274-0.319 0.476-0.628 0.605-0.929v0-2.069c0-0.325-0.003-0.608-0.009-0.851-0.004-0.24-0.017-0.477-0.039-0.711-0.022-0.234-0.055-0.501-0.1-0.801v0h1.516v4.208c0 0.714 0.041 1.343 0.124 1.888 0.085 0.545 0.203 1.024 0.354 1.437zM309.881 164.518v11.818h-1.368c0-0.595 0-1.229 0-1.903 0-0.672 0-1.342 0-2.012 0-0.67 0-1.301 0-1.894 0-0.593 0-1.111 0-1.555 0-0.444 0-0.772 0-0.983v0c0-0.793-0.005-1.491-0.015-2.094-0.01-0.603-0.041-1.062-0.094-1.377v0zM309.511 172.273l3.362-3.47h1.845l-4.054 3.664zM313.13 176.336l-3.434-4.063 0.775-0.811 4.468 4.874zM321.95 173.492l-0.99 2.844h-1.516c0.133-0.301 0.276-0.64 0.43-1.019 0.153-0.379 0.355-0.914 0.605-1.604v0l2.956-8.16h1.588l2.953 8.16c0.246 0.686 0.449 1.22 0.609 1.604 0.157 0.385 0.3 0.725 0.426 1.019v0h-1.513l-1.004-2.844zM322.349 172.349h3.746l-1.885-5.356zM330.82 175.522v0c0-0.274 0.099-0.509 0.297-0.705 0.198-0.194 0.432-0.29 0.702-0.29v0c0.276 0 0.511 0.097 0.705 0.29 0.194 0.196 0.29 0.431 0.29 0.705v0c0 0.272-0.097 0.506-0.29 0.702-0.194 0.198-0.429 0.297-0.705 0.297v0c-0.27 0-0.504-0.099-0.702-0.297-0.198-0.196-0.297-0.43-0.297-0.702zM342.641 171.054v0c0-0.91-0.132-1.692-0.396-2.348-0.264-0.656-0.631-1.16-1.101-1.513-0.47-0.355-1.018-0.532-1.643-0.533v0c-0.621 0-1.171 0.169-1.649 0.509-0.476 0.341-0.85 0.824-1.123 1.449-0.27 0.625-0.405 1.364-0.405 2.215v0c0 0.896 0.132 1.674 0.396 2.335 0.262 0.66 0.631 1.168 1.108 1.525 0.476 0.357 1.034 0.536 1.673 0.536v0c0.605 0 1.145-0.166 1.619-0.499 0.472-0.333 0.843-0.811 1.113-1.434 0.272-0.621 0.408-1.369 0.408-2.242zM344.082 170.869v0c0 0.887-0.131 1.68-0.394 2.378-0.26 0.7-0.611 1.293-1.053 1.779-0.44 0.484-0.937 0.854-1.491 1.111-0.555 0.256-1.128 0.384-1.719 0.384v0c-0.595 0-1.165-0.121-1.709-0.363-0.543-0.24-1.028-0.594-1.456-1.062-0.426-0.468-0.761-1.043-1.007-1.725-0.246-0.682-0.369-1.466-0.369-2.354v0c0-0.885 0.13-1.677 0.39-2.375 0.262-0.696 0.616-1.288 1.062-1.776 0.446-0.488 0.948-0.86 1.507-1.116 0.559-0.254 1.136-0.381 1.73-0.381v0c0.587 0 1.15 0.12 1.689 0.36 0.541 0.242 1.022 0.597 1.443 1.065 0.424 0.468 0.759 1.043 1.007 1.724 0.246 0.682 0.369 1.465 0.37 2.351zM346.333 175.522v0c0-0.274 0.099-0.509 0.296-0.705 0.198-0.194 0.432-0.29 0.702-0.29v0c0.276 0 0.511 0.097 0.705 0.29 0.194 0.196 0.29 0.431 0.29 0.705v0c0 0.272-0.097 0.506-0.29 0.702-0.194 0.198-0.429 0.297-0.705 0.297v0c-0.27 0-0.504-0.099-0.702-0.297-0.198-0.196-0.297-0.43-0.296-0.702z" fill="black" fill-rule="nonzero" stroke="none" stroke-width="1" stroke-linecap="butt" stroke-linejoin="miter" stroke-miterlimit="10" stroke-dasharray="" stroke-dashoffset="0" font-family="none" font-weight="none" font-size="none" text-anchor="none" style="mix-blend-mode: normal" id="SvgjsPath2254"></path></g></g><g transform="matrix(1,0,0,1,29.33176499999999,34.69639063899983)"><svg viewBox="0 0 316.416 37.471038722000344" height="37.471038722000344" width="316.416"><g><svg viewBox="0 0 316.416 37.471038722000344" height="37.471038722000344" width="316.416"><g><svg viewBox="0 0 316.416 37.471038722000344" height="37.471038722000344" width="316.416"><g><svg viewBox="0 0 316.416 37.471038722000344" height="37.471038722000344" width="316.416"><g id="SvgjsG2253"><svg viewBox="0 0 316.416 37.471038722000344" height="37.471038722000344" width="316.416" id="SvgjsSvg2252"><g><svg viewBox="0 0 316.416 37.471038722000344" height="37.471038722000344" width="316.416"><g transform="matrix(1,0,0,1,0,0)"><svg width="316.416" viewBox="1.63 -33.48 287.91 34.11" height="37.471038722000344" data-palette-color="url(#4fd81b3a-4060-49e7-881e-87bd808bdb1e)"><path d="M14.83 0L8.22 0 1.63-31.95 5.88-31.95 10.53-8.08 11.4-3.48 11.85-3.48 12.7-8.08 17.38-31.13 23.5-31.13 28.18-8.08 29.03-3.48 29.48-3.48 30.38-8.08 35.02-31.95 39.23-31.95 32.65 0 26.1 0 22.4-18.38 20.65-27.7 20.25-27.7 18.48-18.38 14.83 0ZM53.87 0.63L53.87 0.63Q48.62 0.63 45.91-2.21 43.2-5.05 43.2-10.38L43.2-10.38 43.2-14.1Q43.2-19.4 45.92-22.23 48.65-25.05 53.87-25.05L53.87-25.05Q59.12-25.05 61.84-22.23 64.55-19.4 64.55-14.1L64.55-14.1 64.55-10.38Q64.55-5.05 61.84-2.21 59.12 0.63 53.87 0.63ZM53.87-2.68L53.87-2.68Q57.12-2.68 58.81-4.6 60.5-6.53 60.5-10.15L60.5-10.15 60.5-14.33Q60.5-17.93 58.81-19.84 57.12-21.75 53.87-21.75L53.87-21.75Q50.65-21.75 48.95-19.84 47.25-17.93 47.25-14.33L47.25-14.33 47.25-10.15Q47.25-6.53 48.95-4.6 50.65-2.68 53.87-2.68ZM74.02-14.93L74.02-14.93 73.09-18.05 74.09-18.1Q74.9-21.2 76.84-22.99 78.8-24.78 82.02-24.78L82.02-24.78Q82.82-24.78 83.46-24.65 84.09-24.53 84.59-24.35L84.59-24.35 84.84-20.43Q84.22-20.63 83.46-20.75 82.7-20.88 81.77-20.88L81.77-20.88Q79.02-20.88 76.98-19.35 74.95-17.82 74.02-14.93ZM74.22 0L70.17 0 70.17-24.4 74.12-24.4 73.92-17.2 74.22-16.9 74.22 0ZM92.97 0L88.94 0 88.94-33.13 92.97-33.13 92.97 0ZM107.74 0.53L107.74 0.53Q103.34 0.53 101.04-2.2 98.74-4.93 98.74-10.15L98.74-10.15 98.74-14.18Q98.74-19.43 101.07-22.19 103.39-24.95 107.92-24.95L107.92-24.95Q110.17-24.95 111.82-24.19 113.47-23.43 114.49-22.05 115.52-20.68 115.87-18.8L115.87-18.8 117.19-18.8 115.99-15.08Q115.92-17.23 115.03-18.69 114.14-20.15 112.63-20.9 111.12-21.65 109.17-21.65L109.17-21.65Q106.07-21.65 104.43-19.85 102.79-18.05 102.79-14.55L102.79-14.55 102.79-9.9Q102.79-6.45 104.43-4.65 106.07-2.85 109.17-2.85L109.17-2.85Q111.02-2.85 112.44-3.56 113.87-4.28 114.8-5.54 115.74-6.8 116.09-8.4L116.09-8.4 117.09-5.5 115.89-5.5Q115.54-3.85 114.55-2.48 113.57-1.1 111.9-0.29 110.24 0.53 107.74 0.53ZM119.94 0L115.89 0 116.07-5.9 115.99-7.2 115.99-17.4 116.02-18.25 115.92-25.18 115.92-33.13 119.94-33.13 119.94 0ZM138.76 0L134.56 0 144.56-31.95 151.11-31.95 161.14 0 156.94 0 148.16-29.15 147.53-29.15 138.76 0ZM155.11-9.43L140.56-9.43 140.56-12.88 155.11-12.88 155.11-9.43ZM169.51-14.93L169.51-14.93 168.58-18.05 169.58-18.1Q170.38-21.2 172.33-22.99 174.28-24.78 177.51-24.78L177.51-24.78Q178.31-24.78 178.95-24.65 179.58-24.53 180.08-24.35L180.08-24.35 180.33-20.43Q179.71-20.63 178.95-20.75 178.18-20.88 177.26-20.88L177.26-20.88Q174.51-20.88 172.47-19.35 170.43-17.82 169.51-14.93ZM169.71 0L165.66 0 165.66-24.4 169.61-24.4 169.41-17.2 169.71-16.9 169.71 0ZM193.18 0.5L193.18 0.5Q190.36 0.5 188.63-0.35 186.91-1.2 186.13-2.93 185.36-4.65 185.36-7.23L185.36-7.23 185.36-22.63 189.36-22.63 189.36-7.7Q189.36-5.3 190.46-4.16 191.56-3.03 194.16-3.03L194.16-3.03Q195.63-3.03 196.99-3.35 198.36-3.68 199.56-4.28L199.56-4.28 199.18-0.8Q198.01-0.2 196.43 0.15 194.86 0.5 193.18 0.5ZM198.93-20.8L181.36-20.8 181.36-24.05 199.31-24.05 198.93-20.8ZM189.26-23.65L185.38-23.65 185.36-30.5 189.43-31.03 189.26-23.65ZM208.2 0L204.15 0 204.15-24.4 208.2-24.4 208.2 0ZM206.18-28.4L206.18-28.4Q204.93-28.4 204.32-29.06 203.7-29.73 203.7-30.88L203.7-30.88 203.7-31Q203.7-32.18 204.32-32.83 204.93-33.48 206.18-33.48L206.18-33.48Q207.43-33.48 208.05-32.83 208.68-32.18 208.68-31L208.68-31 208.68-30.88Q208.68-29.7 208.05-29.05 207.43-28.4 206.18-28.4ZM224.3 0.55L224.3 0.55Q219.05 0.55 216.49-2.29 213.93-5.13 213.93-10.33L213.93-10.33 213.93-14.13Q213.93-19.35 216.5-22.16 219.08-24.98 224.3-24.98L224.3-24.98Q225.85-24.98 227.13-24.69 228.4-24.4 229.41-23.94 230.43-23.48 231.13-22.98L231.13-22.98 231.48-19.45Q230.3-20.35 228.69-20.98 227.08-21.6 224.9-21.6L224.9-21.6Q221.4-21.6 219.69-19.66 217.98-17.73 217.98-14.03L217.98-14.03 217.98-10.43Q217.98-6.8 219.69-4.85 221.4-2.9 224.9-2.9L224.9-2.9Q227.15-2.9 228.79-3.53 230.43-4.15 231.7-5.05L231.7-5.05 231.33-1.48Q230.23-0.73 228.45-0.09 226.68 0.55 224.3 0.55ZM240.75 0L236.72 0 236.72-33.13 240.75-33.13 240.75 0ZM257.72 0.55L257.72 0.55Q252.15 0.55 249.32-2.18 246.5-4.9 246.5-9.98L246.5-9.98 246.5-14.33Q246.5-19.48 249.12-22.26 251.75-25.05 256.8-25.05L256.8-25.05Q260.19-25.05 262.47-23.79 264.75-22.53 265.9-20.2 267.05-17.88 267.05-14.65L267.05-14.65 267.05-13.75Q267.05-12.95 266.98-12.15 266.92-11.35 266.82-10.58L266.82-10.58 263.1-10.58Q263.15-11.78 263.16-12.85 263.17-13.93 263.17-14.83L263.17-14.83Q263.17-17.05 262.46-18.59 261.75-20.13 260.33-20.94 258.92-21.75 256.8-21.75L256.8-21.75Q253.65-21.75 252.07-19.93 250.5-18.1 250.5-14.7L250.5-14.7 250.5-12.38 250.52-11.88 250.52-9.55Q250.52-8.03 250.97-6.8 251.42-5.58 252.38-4.69 253.35-3.8 254.83-3.34 256.32-2.88 258.37-2.88L258.37-2.88Q260.75-2.88 262.8-3.5 264.85-4.13 266.65-5.2L266.65-5.2 266.27-1.7Q264.65-0.68 262.5-0.06 260.35 0.55 257.72 0.55ZM265.97-10.58L248.62-10.58 248.62-13.63 265.97-13.63 265.97-10.58ZM280.07 0.55L280.07 0.55Q277.12 0.55 274.92-0.09 272.72-0.73 271.27-1.48L271.27-1.48 270.89-5.23Q272.72-4.28 274.91-3.58 277.09-2.88 279.87-2.88L279.87-2.88Q282.69-2.88 284.12-3.78 285.54-4.67 285.54-6.45L285.54-6.45 285.54-6.73Q285.54-7.88 285.01-8.63 284.47-9.38 283.07-9.95 281.67-10.53 279.09-11.1L279.09-11.1Q276.02-11.78 274.24-12.69 272.47-13.6 271.71-14.95 270.94-16.3 270.94-18.25L270.94-18.25 270.94-18.48Q270.94-21.68 273.17-23.33 275.39-24.98 279.87-24.98L279.87-24.98Q282.74-24.98 284.86-24.33 286.97-23.68 288.32-22.88L288.32-22.88 288.69-19.45Q287.07-20.4 284.97-21.03 282.87-21.65 280.24-21.65L280.24-21.65Q278.34-21.65 277.17-21.26 275.99-20.88 275.47-20.16 274.94-19.45 274.94-18.45L274.94-18.45 274.94-18.25Q274.94-17.15 275.47-16.39 275.99-15.63 277.36-15.06 278.72-14.5 281.14-13.98L281.14-13.98Q284.27-13.35 286.11-12.48 287.94-11.6 288.74-10.26 289.54-8.93 289.54-6.83L289.54-6.83 289.54-6.4Q289.54-2.95 287.14-1.2 284.74 0.55 280.07 0.55Z" opacity="1" transform="matrix(1,0,0,1,0,0)" fill="black" class="wordmark-text-0" id="SvgjsPath2251"></path></svg></g></svg></g></svg></g></svg></g></svg></g></svg></g></svg></g></svg></g><defs><mask></mask></defs></svg><rect width="375.07953" height="106.86382" fill="black" stroke="none" visibility="hidden"></rect></g></mask></svg><rect width="375.07953" height="106.86382" fill="black" stroke="none" visibility="hidden"></rect></g></mask></svg><rect width="375.07953" height="106.86382" fill="black" stroke="none" visibility="hidden"></rect></g></mask><linearGradient x1="0" x2="1" y1="0.5" y2="0.5" id="72cbaad1-1238-4c20-a445-6d449134774f"><stop stop-color="#ffa62e" offset="0"></stop><stop stop-color="#f71b3d" offset="1"></stop></linearGradient></svg><rect width="375.07953" height="106.86382" fill="none" stroke="none" visibility="hidden"></rect></g></svg></g></svg>